<?xml version="1.0" standalone="no"?>
<!DOCTYPE svg PUBLIC "-//W3C//DTD SVG 1.1//EN" "http://www.w3.org/Graphics/SVG/1.1/DTD/svg11.dtd" >
<!--
2013-9-30: Created.
-->
<svg>
<metadata>
Created by iconfont
</metadata>
<defs>

<font id="iconfont" horiz-adv-x="1024" >
  <font-face
    font-family="iconfont"
    font-weight="500"
    font-stretch="normal"
    units-per-em="1024"
    ascent="896"
    descent="-128"
  />
    <missing-glyph />
    
    <glyph glyph-name="jieguo" unicode="&#58882;" d="M833.81938344 437.44424156c9.67925625-33.37740937 14.87343-68.66056312 14.87343-105.15888937 0-208.149735-168.74136656-376.89110156-376.88736-376.89110156-208.16000062 0-376.90136719 168.74136656-376.90136719 376.89110156 0 208.1469525 168.74136656 376.89110156 376.90136719 376.89110156 33.262185 0 65.51441438-4.31536594 96.23573343-12.40567031l16.93095188 48.67719469c-36.04952062 9.85166062-73.99346531 15.11615719-113.16668531 15.11615718-236.54374969 0-428.28904875-191.74817719-428.28904875-428.27878312 0-236.53722563 191.74539563-428.28530719 428.28904875-428.28530719 236.52964687 0 428.28156562 191.74817719 428.28156562 428.28530719 0 43.10444344-6.37471125 84.71923219-18.22201219 123.95989781L833.81938344 437.44424156zM471.80545438 486.46806656c7.64984531 0 15.1676775-0.5658525 22.51867031-1.64239125l17.11266187 49.20093c-12.82540594 2.50527281-26.07237094 3.83192625-39.63133218 3.83192625-113.536725 0-205.58075813-92.04019594-205.58075813-205.57317937 0-113.54046656 92.04403312-205.57692094 205.58075812-205.57692094 113.54046656 0 205.58075813 92.03645438 205.58075813 205.57692094 0 14.47998188-1.50558094 28.60671281-4.35287813 42.24060281l-48.77841093-19.08767531c1.13736469-7.55246625 1.73046375-15.28386 1.73046375-23.1529275 0-85.15671656-69.02973937-154.17897281-154.17897282-154.17897282-85.152975 0-154.19307563 69.02225625-154.19307562 154.17897282C317.61247437 417.43832719 386.65151937 486.46806656 471.80545438 486.46806656zM1003.214675 674.90987625L814.4262425 674.90987625 814.4262425 864l-51.39420656-52.03508344 0-0.22298437L626.33393562 674.90987625l-0.34946812 0 0-152.33513437L437.53235281 334.13574094l36.11974875-36.10948313 188.4549525 188.44180875L814.4262425 486.46806656l0 0.20049844 0.18832969-0.20051344 136.85927344 136.86953907-0.19677188 0.18458812 0.19675125 0L1003.214675 674.90987625zM794.84571875 537.8585315600001l-117.46050375 0L677.38521406 655.34060063l85.64677688 85.65330093 0-117.47080968 117.4792425 0L794.84571875 537.8585315600001z"  horiz-adv-x="1048" />

    
    <glyph glyph-name="xiazai1" unicode="&#59084;" d="M512 883.2q18.8416 0 32.18773333-13.34613334t13.34613334-32.18773333l0-527.29173333 149.67466666 150.05013333q13.14133333 13.14133333 32.3584 13.14133333 19.5584 0 32.52906667-12.97066666t12.97066667-32.52906667q0-19.21706667-13.14133334-32.3584l-227.56693333-227.56693333q-13.14133333-13.14133333-32.3584-13.14133334t-32.3584 13.14133334l-227.56693333 227.56693333q-13.14133333 13.85813333-13.14133334 32.3584 0 18.8416 13.34613334 32.18773333t32.18773333 13.34613334q19.21706667 0 32.3584-13.14133334l149.67466667-150.05013333 0 527.29173333q0 18.8416 13.34613333 32.18773334t32.18773333 13.34613333zM967.09973333 246.03306666000003q18.8416 0 32.18773334-13.34613333t13.34613333-32.18773333l0-182.03306667q0-56.90026667-39.45813333-96.3584-40.17493333-40.17493333-96.01706667-40.17493333l-729.25866667 0q-55.808 0-96.69973333 39.8336-39.8336 40.89173333-39.8336 96.69973333l0 182.03306667q0 18.8416 13.34613333 32.18773333t32.18773334 13.34613333 32.18773333-13.34613333 13.34613333-32.18773333l0-182.03306667q0-18.8416 13.34613334-32.18773333t32.18773333-13.34613334l729.25866667 0q18.50026667 0 31.47093333 13.34613334t12.97066667 32.18773333l0 182.03306667q0 18.8416 13.34613333 32.18773333t32.18773333 13.34613333z"  horiz-adv-x="1024" />

    
    <glyph glyph-name="shangchuan1" unicode="&#59085;" d="M512 881.0496q19.21706667 0 32.3584-13.14133334l227.56693333-227.56693333q13.14133333-13.14133333 13.14133334-32.3584 0-19.5584-12.97066667-32.52906667t-32.52906667-12.97066666q-19.21706667 0-32.3584 13.14133333l-149.67466666 150.05013333 0-527.29173333q0-18.8416-13.34613334-32.18773333t-32.18773333-13.34613334-32.18773333 13.34613334-13.34613334 32.18773333l0 527.29173333-149.67466666-150.05013333q-13.85813333-13.14133333-32.3584-13.14133333-18.8416 0-32.18773334 13.34613333t-13.34613333 32.18773333q0 18.50026667 13.14133333 32.3584l227.56693334 227.56693334q13.14133333 13.14133333 32.3584 13.14133333zM967.09973333 243.91679999999997q18.8416 0 32.18773334-13.34613334t13.34613333-32.18773333l0-182.03306667q0-56.90026667-39.45813333-96.3584-40.17493333-40.17493333-96.01706667-40.17493333l-729.25866667 0q-55.808 0-96.69973333 39.8336-39.8336 40.89173333-39.8336 96.69973333l0 182.03306667q0 18.8416 13.34613333 32.18773333t32.18773334 13.34613334 32.18773333-13.34613334 13.34613333-32.18773333l0-182.03306667q0-18.8416 13.34613334-32.18773333t32.18773333-13.34613333l729.25866667 0q18.50026667 0 31.47093333 13.34613333t12.97066667 32.18773333l0 182.03306667q0 18.8416 13.34613333 32.18773333t32.18773333 13.34613334z"  horiz-adv-x="1024" />

    
    <glyph glyph-name="weizhi" unicode="&#58926;" d="M861.8095808 514.8410218700001c0 191.9115904-156.84679893 347.5423712-350.4656192 347.5423712-193.55769173 0-350.4656192-155.6307808-350.4656192-347.5423712 0-63.40982293 17.3943104-122.61924907 47.26209493-173.80229547l-0.37441173 0 303.54628053-434.4713536 303.6696288 434.4713536-0.404976 0C844.54080107 392.2217728 861.8095808 451.43119893 861.8095808 514.8410218700001M511.3745248 341.1031296c-96.76410987 0-175.23226347 77.7837344-175.23226347 173.76845653 0 95.9225024 78.46815467 173.76845653 175.23226347 173.76845654 96.85580267 0 175.23226347-77.84595413 175.23226347-173.76845654C686.60678933 418.886864 608.23032747 341.1031296 511.3745248 341.1031296"  horiz-adv-x="1025" />

    
    <glyph glyph-name="guanbi" unicode="&#59078;" d="M512 886.01937465c-277.26039267 0-502.01937465-224.76888291-502.01937465-502.01937465 0-277.26039267 224.75898197-502.01937465 502.01937465-502.01937465S1014.01937465 106.73960733000001 1014.01937465 384C1014.01937465 661.25049173 789.26039267 886.01937465 512 886.01937465zM741.81208178 219.87161657000001c18.11326749-18.15947491 18.11326749-47.53742621 0-65.65069369-18.14627328-18.15947491-47.53742621-18.15947491-65.68369835 0L512 318.33610467000005l-164.17459086-164.11518065c-18.10006585-18.15947491-47.49121877-18.15947491-65.64079161 0-18.10006585 18.11326749-18.10006585 47.49121877 0 65.65069369l164.16138809 164.11518066-164.16138809 164.16138808c-18.10006585 18.11326749-18.10006585 47.50442041 0 65.65069369 18.14627328 18.11326749 47.53742621 18.11326749 65.64079161 0l164.17459086-164.16138809 164.12838343 164.16138809c18.14627328 18.11326749 47.53742621 18.11326749 65.68369835 0 18.11326749-18.14627328 18.11326749-47.53742621 0-65.65069369l-164.16138809-164.16138808L741.81208178 219.87161657000001z"  horiz-adv-x="1024" />

    
    <glyph glyph-name="geren11" unicode="&#58947;" d="M989.184-52.224000000000046c-16.384 193.87733333-148.82133333 354.304-328.36266667 412.33066667 75.09333333 48.46933333 124.928 132.43733333 124.928 228.69333333 0 150.86933333-122.88 273.06666667-273.74933333 273.06666667C360.448 861.86666667 238.25066667 739.66933333 238.25066667 588.8c0-96.256 49.83466667-180.224 124.928-228.69333333-179.54133333-58.02666667-311.97866667-218.45333333-328.36266667-412.33066667 0-3.41333333-0.68266667-6.144 0-10.92266667C36.18133333-80.21333332999995 51.2-93.86666666999997 68.26666667-93.86666666999997 87.38133333-93.86666666999997 102.4-78.16533332999995 102.4-59.73333333000005 120.14933333 151.21066667000002 296.96 315.73333333000005 512 315.73333333000005s391.168-164.52266667 409.6-375.46666666c0-18.432 15.01866667-34.13333333 34.13333333-34.13333334 17.06666667 0 32.08533333 13.65333333 33.45066667 30.72C989.86666667-58.36800000000005 989.184-55.63733333000005 989.184-52.224000000000046zM306.51733333 588.8c0 113.32266667 92.16 204.8 205.48266667 204.8 113.32266667 0 205.48266667-91.47733333 205.48266667-204.8 0-113.32266667-92.16-204.8-205.48266667-204.8C398.67733333 384 306.51733333 475.47733333 306.51733333 588.8z"  horiz-adv-x="1024" />

    
    <glyph glyph-name="sousuo" unicode="&#59048;" d="M1007.16535246-43.80537780999998L822.63743989 138.33811046000005c27.42087472 33.51440228 49.67549703 70.47297155 66.63139946 110.61077276 23.71177013 56.16642844 33.11699846 115.90949266 33.11699845 177.37464099s-10.72990733 121.20821255-34.44167745 177.37464102c-22.91696247 54.3118768-54.44434431 103.06009737-96.30422964 144.78751518-41.85988534 41.85988534-90.60810591 74.71194747-144.78751519 97.62890994-56.16642844 23.71177013-115.90949266 35.76635777-177.374641 35.76635776s-121.20821255-12.05458763-177.37464101-35.76635776c-54.3118768-22.91696247-103.06009737-55.76902462-144.78751518-97.62890994-41.85988534-41.85988534-74.71194747-90.60810591-97.62890995-144.78751518-23.71177013-56.16642844-35.76635777-115.90949266-35.76635776-177.37464102s12.05458763-121.20821255 35.76635776-177.37464099c22.91696247-54.3118768 55.76902462-103.06009737 97.62890995-144.78751519 41.85988534-41.85988534 90.60810591-74.71194747 144.78751518-97.62890994 56.16642844-23.71177013 115.90949266-33.11699846 177.37464101-33.11699846s121.20821255 9.40522703 177.374641 33.11699846c43.44950066 18.41305023 83.45483435 43.18456563 119.0887246 73.784671l184.26297623-181.87855195c7.94807922-7.8156117 18.28058271-11.6571838 28.4806187-11.6571838 10.46497102 0 20.92994202 3.97403961 28.87802254 12.05458762C1023.32644721-85.26785930999995 1023.1939784-59.569068730000026 1007.16535246-43.80537780999998zM469.47777452 54.48587098999997c-100.01333293 0-194.0656071 36.2962291-264.80351496 107.03413698-70.73790786 70.73790786-109.68349628 164.79018074-109.68349627 264.80351495s38.94558972 194.0656071 109.68349627 264.80351497c70.73790786 70.73790786 164.79018074 109.68349628 264.80351496 109.68349628 100.01333293 0 194.0656071-38.94558972 264.80351496-109.68349628s107.03413697-164.79018074 107.03413697-264.80351497S805.01919733 232.25791583 734.28128948 161.52000797000005 569.49110874 54.48587098999997 469.47777452 54.48587098999997z"  horiz-adv-x="1024" />

    
    <glyph glyph-name="chengjiaodingdan" unicode="&#59092;" d="M716.48937296-112.58307898999999c-112.93674475 0-204.47546315 91.54269392-204.47546315 204.47546313s91.540044 204.47546315 204.47546315 204.47546315c112.93409483 0 204.44499489-91.54269392 204.44499488-204.47546315S829.42346779-112.58307898999999 716.48937296-112.58307898999999zM849.16428189 162.86499568c-11.40971857 11.40971857-29.92517713 11.40971857-41.30707736 0l-103.29418743-103.26504348-61.95796611 61.95796613c-11.40971857 11.40971857-29.89338457 11.40971857-41.30707737 0-11.40971857-11.40971857-11.40971857-29.89338457 0-41.30442745l82.61282912-82.61282911c11.40971857-11.40971857 29.92252721-11.40971857 41.33489569 0l123.91725786 123.91725785C860.57532606 132.96896249999998 860.57532606 151.45527711 849.16428189 162.86499568zM704.79219181 354.19007302c-0.99883077 0.0847819-1.88108709 0.60009357-2.93688014 0.60009357l-438.13426697 0c-24.21833073 0-43.8452203-19.62688957-43.84522028-43.81607635 0-24.1918367 19.62556397-43.81607635 43.84522028-43.81607635l257.19225908 0c-22.67769426-25.30459203-40.4791347-54.94230787-52.05974008-87.63215272L263.7210447 179.52586116999998c-24.21833073 0-43.8452203-19.62688957-43.84522028-43.81607636 0-24.1918367 19.62556397-43.81607635 43.84522028-43.81607635l189.87054581 0c0-54.05740164 16.34558459-104.26387426 44.32741379-146.05447072l-278.04317988 0c-64.52657731 0-116.81416778 52.31805872-116.81416779 116.84331171L103.06165793 646.89645684c0 64.52657731 52.28759046 116.84331172 116.81416778 116.84331173l58.42231802 0 0-116.84331173L687.27821395 646.89645684l0 116.84331173 58.42231801 0c64.52525299 0 116.8154921-52.31673441 116.81549209-116.84331173l0-336.43767957c-41.76410245 27.98447785-91.96924946 44.33138803-146.02532679 44.33138804C712.52319379 354.79016531 708.7014087 354.36095985 704.79219181 354.19007302zM745.70053196 486.23839438c0 24.19051109-19.62688957 43.81607635-43.84522029 43.81607635l-438.13426697 0c-24.21833073 0-43.8452203-19.62556397-43.84522028-43.81607635s19.62556397-43.81607635 43.84522028-43.81607635l438.13426697 0C726.07231808 442.42099371 745.70053196 462.04788197 745.70053196 486.23839438zM453.59291612 705.31877486L336.72046175 705.31877486l0 116.84331172 58.422318 0c0 32.263288 26.18684833 58.42231803 58.45013637 58.42231802l58.42099369 0c32.263288 0 58.42231803-26.15902871 58.42231802-58.42231802l58.42231802 0 0-116.84331172-116.84331173 0L453.59291612 705.31877486zM482.77493117 822.16208528c-16.08991586 0-29.18201507-13.06428087-29.18201505-29.211159 0-16.14555381 13.09342352-29.20983469 29.18201505-29.20983471 16.1442295 0 29.23897734 13.06428087 29.23897735 29.20983471C512.01390981 809.0964801 498.91916068 822.16208528 482.77493117 822.16208528z"  horiz-adv-x="1024" />

    
    <glyph glyph-name="dianhua" unicode="&#58905;" d="M918.795922 539.145313c-21.798121 51.476314-52.909055 97.631021-92.514092 137.236058-39.605037 39.605037-85.862083 70.818309-137.236058 92.514092C635.727364 791.409954 579.236458 802.871877 520.903458 802.871877s-114.823906-11.461923-168.142315-33.976414c-51.476314-21.798121-97.631021-52.909055-137.236058-92.514092s-70.818309-85.862083-92.514092-137.236058C100.496502 485.826904 89.034579 429.335998 89.034579 371.002998s11.461923-114.823906 33.976414-168.142315c21.798121-51.476314 52.909055-97.631021 92.514092-137.236058 39.605037-39.605037 85.862083-70.818309 137.236058-92.514092 53.21607-22.514491 109.809314-33.976414 168.142315-33.976414s114.823906 11.461923 168.142315 33.976414c51.476314 21.798121 97.631021 52.909055 137.236058 92.514092 39.605037 39.605037 70.818309 85.862083 92.514092 137.236058 22.514491 53.21607 33.976414 109.809314 33.976414 168.142315S941.310414 485.826904 918.795922 539.145313zM520.903458-15.836898c-213.273636 0-386.839896 173.56626-386.839896 386.839896s173.56626 386.839896 386.839896 386.839896 386.839896-173.56626 386.839896-386.839896S734.177094-15.836898 520.903458-15.836898zM711.662602 320.447731l-0.409354 0.102339-78.80072 14.736758c-14.532081 2.660804-29.678193-1.739756-40.423746-11.768939l-24.970618-23.435539c-22.719168 7.573056-82.996602 35.102139-124.443734 121.885269l28.961823 33.669398c10.131521 11.768939 13.611033 27.73376 9.108135 42.572856l-24.76594 83.815311-0.307016 0.921047c-0.921047 2.558465-9.415151 25.175295-33.976414 34.181091-19.751349 7.26604-42.675195 3.274835-68.055167-11.6666l-0.409354-0.204677c-2.660804-1.637418-26.198681-16.885868-43.084549-47.792125-15.657805-28.654807-28.040776-76.446932 1.535079-141.124925 2.353788-6.447332 16.06716-40.628423 50.043574-85.555067 33.56706-44.414951 94.663202-108.785928 195.159704-163.434739l1.023386-0.511693c2.353788-1.125725 41.651809-19.239656 86.169099-19.239656 18.625625 0 38.274635 3.172497 56.388567 12.178293 32.236658 15.862483 53.318409 45.95003 62.835898 89.443934l0.204677 1.023386c0.409354 2.456126 2.149111 15.35079-3.172497 30.087547C753.109734 300.696382 735.814511 315.023786 711.662602 320.447731zM723.124525 256.793124c-6.856686-30.496902-20.160704-50.35059-40.628423-60.482111-41.754148-20.672397-101.008195 4.605237-106.739157 7.163702-92.821107 50.555267-149.209674 109.502299-180.218269 150.130722-33.669398 44.107935-45.540676 76.753948-45.643014 77.060963l-0.307016 0.921047-0.409354 0.921047c-18.011593 39.195683-19.341995 74.093144-3.888867 103.668999 11.154907 21.388767 27.73376 32.85069 29.473516 34.078753 13.611033 7.982411 25.175295 10.95023 32.543674 8.391765 6.037977-2.046772 9.005797-7.880072 9.722167-9.415151l24.458925-82.791925c0.409354-1.535079 0.102339-3.070158-0.921047-4.298221L409.968419 446.73356c-9.51749-11.052568-11.6666-26.812712-5.526284-40.014391 21.695783-46.257046 50.555267-83.508295 85.964421-110.8327 29.268839-22.61683 55.672197-32.441335 68.771537-36.330202 11.461923-3.377174 24.04957-0.409354 32.85069 7.777733l27.938437 26.198681c1.330402 1.228063 3.172497 1.739756 4.912253 1.43274l77.982011-14.532081c14.429742-3.377174 17.4999-10.540875 18.420947-12.997002C723.329202 262.831101 723.226864 258.225864 723.124525 256.793124z"  horiz-adv-x="1024" />

    
    <glyph glyph-name="chenggong" unicode="&#58894;" d="M511.396232 881.693779c278.295908 0.465617 500.87635-220.72309 500.850767-497.724479-0.025583-277.006506-222.646959-498.179863-500.917284-497.657962-277.651207 0.516784-498.66083 220.144906-499.571598 496.450427C10.847349 659.563604 232.818908 881.223045 511.396232 881.693779zM947.137321 367.841543c8.872313 226.070014-165.161125 437.629141-417.715045 448.967691-234.052026 10.504532-442.234148-170.620617-452.441913-416.66101-9.378864-226.105831 165.125309-437.624024 417.612712-448.957458C728.501834-59.308649 936.428122 121.688582 947.137321 367.841543zM286.58492 384.19955c47.92277-38.134573 94.371938-75.097427 141.03089-112.224014 96.700025 126.990736 226.622615 214.777515 351.106181 311.503123 6.134892-8.202029 11.604617-15.513756 17.949293-23.986968-147.549533-125.36875-244.786809-286.272803-328.551881-450.46176-80.132234 75.941678-161.26222 152.835057-245.032409 232.23049C247.631679 357.853795 266.13869 370.374297 286.58492 384.19955z"  horiz-adv-x="1024" />

    
    <glyph glyph-name="shibai" unicode="&#58889;" d="M1018.146525 384.01535c0.005117-278.510808-226.653315-503.751921-506.765642-503.603538-279.697876 0.148384-505.875341 226.023964-505.522291 504.84689C6.206526 663.360176 233.417559 888.007755 513.903403 887.583071 792.09186 887.163504 1018.141408 661.420956 1018.146525 384.01535zM512.890301 826.474631c-244.188158 0.281417-445.600919-199.555409-445.703253-442.223914-0.102333-241.634937 200.281977-442.055064 442.648598-442.730465 244.592375-0.680518 446.414471 198.414391 446.982421 440.939629C957.380902 625.43027 756.658892 826.193214 512.890301 826.474631zM769.491511 197.481877c-27.241173-24.841453-50.972308-46.484985-71.561805-65.258062-60.315355 81.416519-120.30836 162.398121-183.079718 247.135362-75.39931-80.541568-136.139349-161.528287-187.423775-251.719902-24.774936 20.44623-48.291171 39.853775-72.92284 60.182321 37.730355 42.309779 74.089442 83.759956 111.221146 124.498916 28.689192 31.477779 57.710968 62.709959 87.878879 92.760186 13.262419 13.211253 11.190166 21.633298-1.361035 33.109999C388.258352 496.704982 324.745076 555.730935 260.812232 614.813171c24.099535 30.817728 28.653375 33.544916 62.300625 9.30723 60.622355-43.675931 119.858092-89.362714 178.213761-136.031899 16.035657-12.822385 25.148454-13.681987 40.344976 0.271184 60.873073 55.899665 126.704202 105.101604 202.456563 143.640394 5.275291-9.12303 9.772848-16.895258 13.380103-23.137601-65.288762-58.033318-129.344406-114.976785-194.346635-172.759386C633.689862 354.53819 701.357877 276.283776 769.491511 197.481877z"  horiz-adv-x="1024" />

    
    <glyph glyph-name="toupiaojieshu" unicode="&#58890;" d="M516.236606-108.172888c-273.880218 0.347934-491.968221 216.317634-492.085904 487.301814C24.033019 650.972708 244.019307 867.965742 518.477709 866.732624c274.079768-1.233118 491.620287-217.781002 490.806736-488.575866C1008.476011 107.039544 789.93774-108.520821 516.236606-108.172888zM515.648189-45.401529c235.546095-0.240484 430.24578 191.634797 430.501614 424.254155 0.255834 231.411822-193.809384 424.581622-427.083676 425.118873-235.996362 0.542367-430.813731-190.304462-431.780782-422.98522C86.32341 148.489722 280.869595-45.166162 515.648189-45.401529zM460.802558 613.743787c30.909829 0 59.435287 0 90.7084 0-5.781842-122.825763-11.52275-244.699825-17.325059-367.940039-18.686094 0-34.496617 0-53.945096 0C473.763094 368.450427 467.326318 490.309139 460.802558 613.743787zM538.785789 172.834857c0-27.04674 0-53.858112 0-82.634288-20.29273 0-40.90781 0-63.252326 0 0 27.543057 0 54.262329 0 82.634288C496.629511 172.834857 516.61524 172.834857 538.785789 172.834857z"  horiz-adv-x="1024" />

    
    <glyph glyph-name="personal" unicode="&#58902;" d="M870.327 18.615v0c0 0 0 0 0 0-92.379-90.587-218.77-146.615-358.327-146.615-282.77 0-512 229.266-512 512.037 0 282.77 229.23 512 512 512 282.77 0 512-229.23 512-512 0-143.214-58.917-272.494-153.673-365.422zM512-54.857c103.936 0 199.314 36.315 274.505 96.731-40.046 113.737-147.054 195.877-274.505 195.877-127.451 0-234.459-82.139-274.505-195.877 75.191-60.416 170.569-96.731 274.505-96.731zM512 822.857c-242.359 0-438.857-196.498-438.857-438.857 0-109.531 40.375-209.408 106.715-286.318 57.856 125.733 184.649 213.175 332.142 213.175 147.456 0 274.286-87.442 332.142-213.175 66.341 76.873 106.715 176.786 106.715 286.318 0 242.359-196.498 438.857-438.857 438.857zM512 347.429c-101.010 0-182.857 81.883-182.857 182.857 0 101.010 81.847 182.857 182.857 182.857 100.974 0 182.857-81.847 182.857-182.857 0-100.974-81.883-182.857-182.857-182.857zM512 640c-60.599 0-109.714-49.115-109.714-109.678 0-60.599 49.115-109.714 109.714-109.714 60.599 0 109.714 49.115 109.714 109.714 0 60.562-49.115 109.678-109.714 109.678z"  horiz-adv-x="1024" />

    
    <glyph glyph-name="xinxishuoming" unicode="&#58952;" d="M555.32657778 601.2397037000001c0 29.97665185-24.27259259 54.24924445-54.24924445 54.24924445s-54.24924445-24.27259259-54.24924444-54.24924445c0-29.97665185 24.27259259-54.24924445 54.24924444-54.24924445C531.05398518 546.99045925 555.32657778 571.26305185 555.32657778 601.2397037000001zM439.78903703 152.43946667c9.8304-8.49540741 22.45214815-9.8304 31.7970963-8.73813334 5.70405925 0.72817778 11.89357037 2.42725925 14.19946667 3.03407408l91.50767408 30.94755556c19.6608 6.5536 29.24847408 19.53943703 22.20942222 42.35567406-7.03905185 19.6608-23.42305185 25.00077037-39.3216 21.11715556L509.57274075 227.07768889l47.08882962 222.70103703c2.06317037 9.95176297 0.48545185 25.48622222-9.95176296 36.65161483-9.46631111 10.07312592-25.12213333 11.65084445-35.0738963 9.10222222L424.61866667 466.04136297c-15.77718518-4.00497778-24.27259259-24.51531852-20.02488889-40.29250372 5.70405925-20.99579259 22.08805925-28.39893333 37.86524444-24.39395555l38.10797037 11.52948148-48.54518518-231.80325926C429.83727408 171.25072592000004 432.50725925 159.35715555000002 439.78903703 152.43946667zM965.60621037 400.777216c0-259.11478045-210.02588918-469.14066963-469.14066962-469.14066963S27.32487111 141.66243555000005 27.32487111 400.777216s210.02588918 469.14066963 469.14066964 469.14066963S965.60621037 659.89199645 965.60621037 400.777216zM497.08691911 799.08075141c-213.13278103 0-400.16767052-187.03488948-400.16767052-399.54629216 0-221.21069985 178.95697067-400.16767052 400.16767052-400.1676705s400.16767052 178.95697067 400.16767052 400.1676705C897.875968 610.80310518 713.326592 799.08075141 497.08691911 799.08075141z"  horiz-adv-x="1026" />

    
    <glyph glyph-name="zonghezhibiao" unicode="&#58910;" d="M877.55057937 427.32612375c-47.80647281 0-88.61487469-30.65471906-103.77088312-73.38183094L690.35433781 353.94429281c1.65376219 9.92833312 2.7099525 20.08417594 2.7099525 30.65111906 0 67.66674-37.95013594 126.49085531-93.65463843 156.42920813l31.96865718 105.72775125c8.27745094-1.99358625 17.00128125-3.11961375 25.99149844-3.11961375 60.78170345 0 110.13034406 49.3104825 110.13034406 110.23977844C767.49943156 814.6931175 718.15079094 864 657.3690875 864c-60.85441969 0-110.16490219-49.3068825-110.16490219-110.12818406 0-46.22398781 28.35802688-85.63997531 68.60413594-102.04008375l-31.33076719-103.77376218c-21.13964625 8.98949719-44.49606844 13.8816675-68.94396 13.88166749-46.1131125 0-87.97626469-17.49229781-119.56910062-46.22758688L232.01379969 679.70306156l-1.76823656-1.88271187c18.69392156 19.78466999 30.24073875 46.48893469 30.24073875 75.94059094 0 60.81842156-49.23488625 110.12818406-110.12818407 110.12818406-60.85657969 0-110.16706219-49.3097625-110.16706218-110.12818406 0-60.96961406 49.3097625-110.24265844 110.16706218-110.24265844 29.44949625 0 56.15520094 11.58569531 75.86355469 30.314895l-5.79284812-5.67837281 164.02557093-163.94997469c-28.80872625-31.55899687-46.41189844-73.5704625-46.41189844-119.682855 0-40.32026531 13.50152531-77.51731687 36.18117938-107.34479438l-140.47979719-113.43714843c-20.15977219 26.29172437-51.83036438 43.32972375-87.52268625 43.32972375-60.81986156 0-110.09146594-49.42423687-110.09146593-110.24265844 0-60.78098343 49.27160438-110.12818406 110.09146593-110.12818406 60.81842156 0 110.20234031 49.34720062 110.20234032 110.12818406 0 19.25765531-5.00232469 37.38568313-13.69015688 53.1464625l141.90893063 114.566055c32.42295657-35.28122156 79.02276562-57.54761531 130.89200812-57.54761531 26.3270025 0 51.18959438 5.67909281 73.64389875 16.02356718l49.42135688-112.04473406c-33.36107156-18.95814937-55.77865875-54.68934938-55.77865875-95.72526094 0-60.85513969 49.34720062-110.20234031 110.24265843-110.20234031 60.81842156 0 110.05186781 49.34720062 110.05186782 110.20234031 0 60.78098343-49.23416625 110.16850219-110.05186782 110.16850219-14.10701719 0-27.42063094-2.74667062-39.79324968-7.40989219l-49.49839313 112.53215063c40.13235375 23.02019813 70.48396687 61.42319344 82.93362188 107.0827275l82.70899312 0c-1.31753813-6.57977063-1.84239375-13.35105281-1.84239375-20.38440188 0-60.81842156 49.27304437-110.16562219 110.0504278-110.16562218 60.93289594 0 110.24625844 49.34720062 110.24625845 110.16562218C987.78963781 378.01564125000004 938.55691156 427.32612375 877.55057937 427.32612375L877.55057937 427.32612375zM877.55057937 427.32612375"  horiz-adv-x="1024" />

    
    <glyph glyph-name="shanchu2" unicode="&#58909;" d="M873.88385963 563.97672903l-34.09521664-645.90665159c-1.25394603-23.72716885-20.85601735-42.32561778-44.62160782-42.32561778L228.83296483-124.25554034000004c-23.76559047 0-43.36766179 18.59844893-44.62160782 42.32561778l-34.09521664 645.90665159c-1.29818851 24.64346909 17.62393429 45.67529472 42.26623944 46.9781413 24.75756999 1.19456654 45.67995165-17.62859122 46.97814129-42.26623943l31.85860608-603.58103381 481.56291186 0 31.85860608 603.58103381c1.30866745 24.64812601 22.48253781 43.38396274 46.9781413 42.26623943C856.25992533 609.6508598099999 875.18204814 588.62019811 873.88385963 563.97672903zM992.3299237 713.52926435c0-24.67606983-20.00608142-44.68215125-44.68215125-44.68215125L76.35222755 668.8471131c-24.67606983 0-44.68215125 20.00608142-44.68215125 44.68215125s20.00608142 44.68215125 44.68215125 44.68215126l245.75008541 0L322.10231296 858.74480014c0 21.59418027 14.40000114 33.51190414 35.99301746 33.51190415l307.79886137 0c21.59418027 0 36.00349639-11.91772387 36.00349639-33.51190415l0-100.53454961 245.7500854 0C972.32384227 758.21025166 992.3299237 738.2041691 992.3299237 713.52926435zM400.29520441 758.21025166l223.40959232 0L623.70479559 814.06264889 400.29520441 814.06264889 400.29520441 758.21025166zM419.02987605 32.130242560000056c0.31203101 0 0.62173411 0 0.93842205 0 21.58835939 0 38.67089579 20.76753123 38.16442766 42.35472555l-11.36119125 482.94958762c-0.50763321 21.58952334-18.21073863 39.22626446-40.00750706 38.751232-21.58835939-0.50763321-38.67089579-18.12574549-38.16442766-39.71410375l11.36119125-483.97067491C380.46260224 51.22933874 397.8618277 32.130242560000056 419.02987605 32.130242560000056zM603.26093938 32.130242560000056c21.16339143 0 38.56843776 17.95343019 39.07024896 39.22510051l11.36119125 482.30573284c0.50763321 21.58835939-16.57606827 39.76184035-38.16442766 40.26947243-21.92600405 0.31668793-39.50103779-16.44916053-40.00750706-38.03286187l-11.36119125-482.76912242c-0.50763321-21.58952334 16.57606827-40.99832149 38.16442766-40.99832149C602.64037035 32.130242560000056 602.95123627 32.130242560000056 603.26093938 32.130242560000056z"  horiz-adv-x="1024" />

    
    <glyph glyph-name="dian-cai" unicode="&#58924;" d="M512 384m-477.45788373 0a467.2 467.2 0 1 1 954.91576853 0 467.2 467.2 0 1 1-954.91576853 0Z"  horiz-adv-x="1024" />

    
    <glyph glyph-name="sanjiao-shang" unicode="&#58914;" d="M1583.79732556-104.44314667000003L854.67884656-106.66666667000004 121.74588256-100.19417867000004C77.19242956-100.19417867000004 38.02738856-97.78323566999995 25.01426156-87.81999467000003-6.40465944-63.76594266999996-2.97140944-14.63553066999998 25.01426156 13.226616329999956L800.79257456 862.68989733C815.57983256 877.54105033 835.31676156 883.89000733 854.73848156 882.93585433 874.16446155 883.89213733 893.83962656 877.54105033 908.69077956 862.68989733L1684.46696056 13.22874833000003C1712.38874356-14.633401670000012 1715.43649856-63.31442167 1684.46696056-87.75184066999998 1670.05881056-99.11436666999998 1644.98245156-104.44314667000003 1583.79732556-104.44314667000003L1583.79732556-104.44314667000003Z"  horiz-adv-x="1707" />

    
    <glyph glyph-name="queding" unicode="&#58899;" d="M444.845 77.37800000000004l3.584 2.676c3.006 2.262 4.774 3.55 6.409 5.186l535.139 542.62c22.974 23.272 23.403 61.639 1.007 85.538-21.52 22.808-59.342 23.353-81.342 0.99L387.815 185.312 112.541 471.139c-9.365 9.745-22.115 15.112-35.873 15.112-15.575 0-30.522-6.606-42.083-18.613-22.726-23.569-24.23-60.35-3.37-82.003l321.718-334.072c19.803-20.53 56.37-18.861 77.94 3.535 4.872 5.037 8.968 11.198 12.156 18.234l1.816 4.046z"  horiz-adv-x="1024" />

    
    <glyph glyph-name="shouye-cai" unicode="&#58963;" d="M805.69344-77.00480000000005a93.184 93.184 0 0 0-4.66944 0.1024H203.264c-40.0384 0-63.08864 16.8704-75.3664 31.01696-26.92608 31.0016-24.76032 73.0368-23.552 84.70016v359.5264h64v-363.90912l-0.29696-1.88416c-0.76288-6.4-0.83456-26.27584 8.28928-36.608 1.93024-2.18624 7.80288-8.83712 26.9312-8.83712h600.30976l0.74752-0.08192c2.1504-0.0768 22.31808-0.4352 34.9952 11.55584 8.45312 7.99232 12.74368 21.21216 12.74368 39.29088v360.7552h64v-360.7552c0-45.8752-18.24768-72.3712-33.55648-86.528-27.53536-25.46176-62.4128-28.34944-76.81536-28.34944zM136.35072 368.30719999999997H37.9904A32 32 0 0 0 16.76288 424.2432l472.2176 419.09248a32 32 0 0 0 42.22464 0.22528l478.78144-415.79008a32 32 0 0 0-20.06528-56.14592l-104.93952-3.01568a32 32 0 0 0-1.83808 63.9744l22.9376 0.66048-395.62752 343.5776L122.2656 432.31232h14.08a32 32 0 0 0 0-64z m266.6496-413.51168a26.99776 26.99776 0 0 0-27.00288 26.99776v225.8432c0 4.86912 1.23904 24.90368 20.0192 43.99616 22.80448 23.17312 61.46048 34.92352 114.90304 34.92352 52.63872 0 90.88-11.90912 113.65376-35.39968 19.2256-19.82976 20.46464-40.704 20.4288-46.24384v-222.25408a26.99776 26.99776 0 1 0-54.00064 0v221.93664c-0.1792 1.16224-1.31072 6.10304-8.01792 11.54048-7.56736 6.13376-26.99776 16.41984-72.064 16.41984-52.2752 0-70.84544-13.14304-76.40576-18.7904-2.72896-2.77504-3.87584-5.14048-4.35712-6.6304a7.8848 7.8848 0 0 1-0.1536-0.54784v-224.7936a26.99776 26.99776 0 0 0-27.00288-26.99776z m6.99904 215.19872L400.9984-35.993600000000015l-237.99808 12.99968-16.9984 254.0032 4.99712 165.99552-70.99904 22.99904 429.0048 389.00224 422.99392-368.9984-42.99776-41.00096-18.00192-370.00192-16.9984-57.00096-224-7.99744-3.99872 148.99712-14.0032 100.00384-28.00128 22.99904-54.99904 9.00096-67.9936-6.00064-42.00448-6.00064z"  horiz-adv-x="1024" />

    
    <glyph glyph-name="dizhi" unicode="&#58901;" d="M511.629135-127.59785799999997c-264.061121 0-475.258836 59.041771-475.258836 156.396716 0 62.624491 77.503749 104.227919 202.423706 130.330596 19.485612 5.227847 38.824991-6.872974 40.360442-25.956444a33.268119 33.268119 0 0 0-26.431703-41.749661c-91.542164-19.229704-146.087255-48.768868-146.087254-62.624491 0-3.436487 5.300964-8.664334 21.167297-19.083471 19.30282-12.210496 47.452767-24.311317 84.44984-34.730453 77.46719-22.519957 186.703606-34.767012 301.058193-34.767012 114.464263 0 221.87276 12.247055 301.094752 34.767012 36.850839 10.419136 65.073902 22.519957 84.413281 34.730453 14.038415 10.419136 19.339379 15.646983 19.339379 19.083471 0 15.646983-59.772938 46.977508-160.12567 66.060978a33.962728 33.962728 0 0 0-28.113388 39.9583 34.36487 34.36487 0 0 0 40.506676 27.747805c133.693966-25.956444 216.462121-69.497465 216.462121-133.767083 0-97.354945-211.197715-156.396715-475.258836-156.396716z m83.31653 193.320671c-17.438343-15.683542-33.01221-28.149946-46.575366-37.070189-18.425419-12.210496-32.463834-17.657694-45.515173-17.657694-12.868547 0-26.94352 5.447197-45.478615 17.657694a410.989218 410.989218 0 0 0-46.575366 37.070189c-36.37558 32.683185-76.077972 75.45648-111.905177 120.642628-55.824634 70.374866-149.596858 206.701035-149.596858 328.111389 0 103.569868 33.779936 198.914102 95.051767 268.375009A328.403856 328.403856 0 0 0 356.511962 865.729668c44.784006 20.107105 93.991574 30.30689 146.343164 30.30689s101.632274-10.199786 146.343163-30.30689a329.061906 329.061906 0 0 0 112.197643-82.877829c61.344948-69.460907 95.015209-164.805141 95.015209-268.375009 0-121.410353-93.735666-257.626848-149.5603-328.111389-35.863763-45.186148-75.566155-88.069118-111.905176-120.642628zM502.855126 832.498108c-170.21578 0-289.213281-130.69618-289.213281-317.911603 0-72.166226 46.831275-174.090968 128.575794-279.488754 32.207926-41.493752 68.473831-81.817637 102.217208-113.367512 31.074616-29.027347 50.194645-41.639986 58.274045-45.844198 8.152517 4.204213 27.235987 16.816851 58.310603 45.844198a995.557587 995.557587 0 0 1 102.253767 113.367512c81.74452 105.397787 128.539236 207.322528 128.539236 279.488754 0.255909 187.215423-118.631917 317.911603-288.957372 317.911603z m0-455.480757a172.482399 172.482399 0 0 0-121.849054 49.755944 168.058836 168.058836 0 0 0-50.413995 120.277044c0 45.442056 17.950161 88.178793 50.413995 120.240486a172.336166 172.336166 0 0 0 121.849054 49.792502c46.063549 0 89.348661-17.694252 121.849054-49.792502a167.802928 167.802928 0 0 0 50.413995-120.240486c0-45.442056-17.913602-88.215352-50.413995-120.277044a172.189932 172.189932 0 0 0-121.849054-49.755944z m0 276.564084c-59.443913 0-107.774081-47.745234-107.774081-106.421421s48.330168-106.384863 107.774081-106.384862 107.810639 47.708675 107.810639 106.384862c0 58.676187-48.220493 106.421421-107.810639 106.421421z"  horiz-adv-x="1024" />

    
    <glyph glyph-name="xinjian" unicode="&#58900;" d="M992.07281908 105.06831364000004h-168.64205781V-69.64694968000003a26.00618997 26.00618997 0 0 0-25.99814601-26.00618997h-35.77158267a26.00618997 26.00618997 0 0 0-25.998146 26.00618997V105.06831364000004H567.02082878a26.00618997 26.00618997 0 0 0-25.99814599 26.01423395V166.84608630000002a26.00618997 26.00618997 0 0 0 25.99814599 25.99814602h168.64205781v174.73135126a26.00618997 26.00618997 0 0 0 25.998146 26.00618999h35.77158267a26.00618997 26.00618997 0 0 0 25.99814601-26.00618999v-174.73135126h168.64205781a26.00618997 26.00618997 0 0 0 26.01423394-25.99814602v-35.77158268a26.01423396 26.01423396 0 0 0-26.01423394-26.01423395zM302.05210071 840.60991945h520.16401945c114.90826596 0 208.06560779-93.14929785 208.06560779-208.04951982v-282.84245345c0-25.25809977-24.83176878-29.24791425-24.83176879-29.24791425h-20.94652605c-21.92789172 0-23.7297434 29.61793735-23.72974338 29.61793738V438.70850595H59.46172724v-326.30408181s36.35879331-132.47632005 138.56561355-132.47632005h389.69869461s26.42447698-1.82598366 26.42447697-23.62517166v-25.2420118c0-24.67088915-25.45115531-26.72210427-25.45115529-26.72210427H198.01929681c-114.91630994 0-208.06560779 93.14929785-208.06560778 208.06560778V841.59932909m69.06561928-67.56943887v-268.14610047h905.81659172v127.97973477c0 123.70033698-122.87985094 140.15832173-122.87985094 140.15832172H177.82890496"  horiz-adv-x="1024" />

    
    <glyph glyph-name="bangzhushuoming" unicode="&#59123;" d="M511.99945387 862.69336213c-264.02391467 0-478.69336213-213.91411093-478.69336107-478.69008746 0-264.03373867 213.91411093-478.69554453 478.69336107-478.69554454 264.0315552 0 478.69336213 213.9184768 478.69336213 478.69554454-0.0010912 264.02609707-213.91520213 478.69008747-478.69336213 478.69008746z m0-889.0036736c-226.602016 0-410.30376213 183.70174613-410.30376107 410.31249494 0 226.60638187 183.70174613 410.30594453 410.30376107 410.30594453 226.6129312 0 410.308128-183.69956267 410.308128-410.30594453 0-226.6107488-183.6951968-410.31249387-410.308128-410.31249494z m0 268.94560854c-26.92032107 0-49.3642912-23.18730027-49.36429014-50.85749974 0-28.425536 22.44397013-50.8618656 49.36429014-50.8618656 27.6756576 0 49.3642912 22.4374208 49.3642912 50.8618656 0 28.42007787-22.4363296 50.85749973-49.3642912 50.85749974z m129.3993888 323.12025706c-11.9653152 18.69675947-29.17104853 33.65940587-50.85968214 44.8759328-21.69409173 11.2198016-47.1288448 16.45367253-75.54892373 16.45367254-30.66644053 0-57.58676053-5.98156587-80.77842667-19.44663787-22.44178667-12.7151936-40.38757653-29.16886613-52.35944-49.3642912-11.9653152-20.19433387-17.9446976-39.63988053-17.9446976-59.0865184 0-8.97453227 3.73629547-17.94906347 11.2176192-26.1780832 7.48132373-8.23120213 16.4580384-11.97186347 27.6756576-11.97186347 18.69894187 0 31.4108608 11.22198507 38.14448854 34.40928427 7.48132373 22.4374208 15.7103424 38.89218453 26.1802656 50.1119872 10.47210667 11.2176192 26.17589973 17.20136747 47.86453333 17.20136747 18.69894187 0 33.66158933-5.98374933 45.63345387-17.20136747 11.9653152-11.2198016 17.9436064-24.68487467 17.94360533-41.13745493 0-8.22683627-2.24090453-15.70597653-5.9793824-23.18293334-3.7428448-7.48132373-8.22901867-13.46943787-14.21495147-19.4510048-5.98593173-5.98374933-14.9626464-14.95828053-27.67565653-26.17808213-14.20840213-12.7151936-26.1802656-23.93717867-34.4016448-33.65940693-8.22901867-8.97453227-14.9626464-20.19651733-20.2008832-32.91170987-5.23168747-12.71301013-7.4747744-27.6756576-7.4747744-44.8737504 0-13.465072 3.74502827-23.93717867 10.47210667-30.66862293 7.48132373-6.73144427 15.70379307-10.47210667 26.1802656-10.47210667 19.44663787 0 31.4185024 11.22198507 35.14933973 32.16183147 2.2474528 9.7222272 4.48399147 17.20355093 5.2382368 20.94421226 0.74114667 3.74066133 2.24963627 8.22901867 4.48399147 11.9653152 2.24308693 4.4905408 5.2404192 8.97889813 8.97671466 13.46943787 4.48617387 4.48399147 9.72441067 10.46773973 16.4580384 16.45367253 23.93717867 22.43960427 40.39521707 38.14448853 50.10980374 47.8667168 8.97671467 8.97889813 17.2057344 20.19651733 23.93936106 33.65940587 7.4747744 12.7151936 10.4699232 28.42117013 9.72222827 44.87593387 0 21.69190827-5.9793824 42.63393813-17.95124693 61.33506346z"  horiz-adv-x="1024" />

    
    <glyph glyph-name="hetongguanli-dao" unicode="&#58958;" d="M266.24 438.61333333h491.52c13.65333333 0 27.30666667 13.65333333 27.30666667 27.30666667s-13.65333333 27.30666667-27.30666667 27.30666667h-491.52c-13.65333333 0-27.30666667-13.65333333-27.30666667-27.30666667s13.65333333-27.30666667 27.30666667-27.30666667zM268.97066667 274.77333333h155.648c16.384 0 30.03733333 13.65333333 30.03733333 27.30666667 0 16.384-13.65333333 27.30666667-30.03733333 27.30666667h-155.648c-16.384 0-30.03733333-10.92266667-30.03733334-27.30666667 0-13.65333333 13.65333333-27.30666667 30.03733334-27.30666667zM268.97066667 110.93333332999998h155.648c16.384 0 30.03733333 13.65333333 30.03733333 27.30666667 0 16.384-13.65333333 27.30666667-30.03733333 27.30666667h-155.648c-16.384 0-30.03733333-10.92266667-30.03733334-27.30666667 0-13.65333333 13.65333333-27.30666667 30.03733334-27.30666667zM266.24 602.4533333300001h491.52c13.65333333 0 27.30666667 13.65333333 27.30666667 27.30666667s-13.65333333 27.30666667-27.30666667 27.30666667h-491.52c-13.65333333 0-27.30666667-13.65333333-27.30666667-27.30666667s13.65333333-27.30666667 27.30666667-27.30666667zM921.6 875.52h-819.2c-13.65333333 0-27.30666667-13.65333333-27.30666667-27.30666667v-928.42666666c0-13.65333333 13.65333333-27.30666667 27.30666667-27.30666667h409.6c16.384 0 27.30666667 10.92266667 27.30666667 27.30666667s-10.92266667 27.30666667-27.30666667 27.30666666h-382.29333333v873.81333334h764.58666666v-409.6c0-16.384 10.92266667-27.30666667 27.30666667-27.30666667s27.30666667 10.92266667 27.30666667 27.30666667v436.90666666c0 13.65333333-13.65333333 27.30666667-27.30666667 27.30666667zM785.06666667 274.77333333c90.112 0 163.84-73.728 163.84-163.84s-73.728-163.84-163.84-163.84-163.84 73.728-163.84 163.84 73.728 163.84 163.84 163.84m0 54.61333334c-120.14933333 0-218.45333333-98.304-218.45333334-218.45333334s98.304-218.45333333 218.45333334-218.45333333 218.45333333 98.304 218.45333333 218.45333333-98.304 218.45333333-218.45333333 218.45333334zM795.98933333 209.23733332999996l21.84533334-46.42133333c2.73066667-2.73066667 5.46133333-5.46133333 8.192-5.46133333l49.152-5.46133334c8.192 0 13.65333333-13.65333333 5.46133333-19.11466666l-38.22933333-32.768c-2.73066667-2.73066667-2.73066667-5.46133333-2.73066667-10.92266667l10.92266667-49.152c2.73066667-8.192-8.192-16.384-16.384-10.92266667l-43.69066667 24.576c-2.73066667 2.73066667-8.192 2.73066667-10.92266667 0l-43.69066666-24.576c-8.192-5.46133333-16.384 2.73066667-16.384 10.92266667l10.92266666 49.152c0 2.73066667 0 8.192-2.73066666 10.92266667l-38.22933334 32.768c-8.192 5.46133333-2.73066667 16.384 5.46133334 19.11466666l49.152 5.46133334c2.73066667 0 8.192 2.73066667 8.192 5.46133333l21.84533333 46.42133333c5.46133333 8.192 16.384 8.192 21.84533333 0z"  horiz-adv-x="1024" />

    
    <glyph glyph-name="tuichu" unicode="&#58995;" d="M786.27641268 427.49648592l-105.01294459 105.05436981L739.83873581 591.12612347l175.76722836-175.76722838L944.89359803 386.07126124 739.83873581 181.01639902l-58.57526772 58.61669293 105.01294459 105.01294458H346.29910124v82.85044939h439.97731144zM594.85044939-113.10269630000005H180.84675381A83.0575755 83.0575755 0 0 0 97.74775309-30.04512079999995V798.0451208c0 45.85772373 37.15842655 83.0575755 83.09900072 83.0575755H594.85044939v-82.85044939H222.31340373A41.38379947 41.38379947 0 0 1 180.59820247 757.15842402v-746.31684804C180.59820247-11.40376968999999 199.23955358-30.252246910000054 222.31340373-30.252246910000054H594.85044939v-82.85044939z"  horiz-adv-x="1024" />

    
    <glyph glyph-name="zhankai" unicode="&#58881;" d="M512 853.333333C251.733333 853.333333 42.666667 644.266667 42.666667 384s209.066667-469.333333 469.333333-469.333333 469.333333 209.066667 469.333333 469.333333S772.266667 853.333333 512 853.333333z m0-874.666666c-221.866667 0-405.333333 179.2-405.333333 405.333333 0 221.866667 179.2 405.333333 405.333333 405.333333s405.333333-179.2 405.333333-405.333333c0-221.866667-183.466667-405.333333-405.333333-405.333333zM512 345.6L345.6 512 298.666667 469.333333l213.333333-213.333333 213.333333 213.333333-46.933333 42.666667z"  horiz-adv-x="1024" />

    
    <glyph glyph-name="shangpin1" unicode="&#58885;" d="M876.08888889 820.90666667H147.91111111c-40.04977778 0-72.81777778-32.768-72.81777778-72.81777778v-728.17777778c0-40.04977778 32.768-72.81777778 72.81777778-72.81777778h728.17777778c40.04977778 0 72.81777778 32.768 72.81777778 72.81777778V748.08888889c0 40.04977778-32.768 72.81777778-72.81777778 72.81777778zM745.92711111 368.29866667C729.42933333 253.83822222000003 631.01155555 165.54666667000004 512 165.54666667000004c-118.89777778 0-217.42933333 88.29155555-233.92711111 202.752-22.528 6.71288889-39.13955555 27.42044445-39.13955556 52.11022222 0 30.15111111 24.46222222 54.61333333 54.61333334 54.61333333s54.61333333-24.46222222 54.61333333-54.61333333c0-22.75555555-13.88088889-42.09777778-33.56444445-50.40355556C330.06933333 274.88711111 412.55822222 201.95555554999999 512 201.95555554999999s181.93066667 72.93155555 197.40444445 168.04977778C689.72088889 378.31111110999996 675.84 397.65333333 675.84 420.40888889c0 30.15111111 24.46222222 54.61333333 54.61333333 54.61333333s54.61333333-24.46222222 54.61333334-54.61333333c0-24.68977778-16.61155555-45.39733333-39.13955556-52.11022222zM894.29333333 693.47555555c0-20.02488889-16.384-36.40888889-36.40888888-36.40888888H166.11555555c-20.02488889 0-36.40888889 16.384-36.40888888 36.40888888v36.4088889c0 20.02488889 16.384 36.40888889 36.40888888 36.40888888h691.7688889c20.02488889 0 36.40888889-16.384 36.40888888-36.40888888v-36.4088889z"  horiz-adv-x="1024" />

    
    <glyph glyph-name="tuichu1" unicode="&#59005;" d="M514.62144-124.56049777999999c-65.85002667 0-129.80224 12.39381333-189.95655111 36.96526223-58.14158222 23.61799111-110.28138667 57.47484445-155.09390222 100.61824-44.81251555 43.14339555-79.97781333 93.41724445-104.58680889 149.3549511-25.44412445 57.91516445-38.35562667 119.44846222-38.35562667 182.88298667 0 75.90343111 19.32970667 151.25731555 55.86261334 218.01984 35.31776 64.49607111 86.62243555 121.13009778 148.41059555 163.76149333 17.16451555 11.84654222 41.01347555 8.00654222 53.27985778-8.48213333 12.26638222-16.48981333 8.35584-39.41489778-8.80981333-51.18748444-52.21717333-36.12330667-95.54944-83.87356445-125.32167112-138.31395556-31.25475555-57.07320889-47.09034667-118.90005333-47.09034666-183.79776 0-105.88273778 42.83733333-205.44056889 120.61240888-280.28245333 77.73752889-74.87943111 181.10805333-116.12046222 291.04924445-116.12046222 109.90364445 0 213.31285333 41.24216889 291.08792889 116.1216 77.77507555 74.84302222 120.57486222 174.39971555 120.57486222 280.28245333 0 64.82488889-15.79804445 126.76096-47.09034666 183.79662222-29.77223111 54.40398222-73.14204445 102.19064889-125.35921778 138.24227556-17.12810667 11.77144889-21.11488 34.69653333-8.81095112 51.18748444 12.30392889 16.48867555 36.11648 20.36394667 53.24231112 8.48099556 61.82570667-42.63139555 113.20661333-99.26542222 148.48796444-163.76035556 36.57045333-66.76252445 55.90016-142.11640889 55.90016-218.01984 0-63.43566222-12.91150222-124.96896-38.39317333-182.91939555-24.57258667-55.93998222-59.77543111-106.21269333-104.58794667-149.35495112-44.81137778-43.14339555-96.95232-76.96270222-155.09390222-100.69219555-60.19185778-24.42353778-124.10652445-36.78094222-189.95655111-36.78094222h-0.00113778v-0.00227556z m11.4688 509.82001778c-21.07619555 0-38.16561778 16.38058667-38.16561778 36.70926222V857.12896c0 20.25585778 17.08942222 36.74567111 38.16561778 36.74567111 21.07733333 0 38.20430222-16.48981333 38.20430222-36.74567111v-435.16017778c0-20.32867555-17.12583111-36.70926222-38.20430222-36.70926222z"  horiz-adv-x="1024" />

    
    <glyph glyph-name="gonggao1" unicode="&#58955;" d="M904.1 765.2c-5.8 0-11.8-0.9-17.8-2.9L288 562.8H120c-30.9 0-56-25.1-56-56v-224c0-30.9 25.1-56 56-56h168v-28c0-108.2 87.8-196 196-196 15.5 0 28 12.5 28 28s-12.5 28-28 28c-77.2 0-140 62.8-140 140v9.3l542.3-180.8c6-2 11.9-2.9 17.8-2.9 29.8 0 55.9 24.1 55.9 56V709.1c0 32-26.2 56.1-55.9 56.1zM120 282.8v224h168v-224H120z m784-202.3L344 267.2V522.5l560 186.7v-628.7z"  horiz-adv-x="1024" />

    
    <glyph glyph-name="fankuiwenti" unicode="&#59130;" d="M386.844444 99.55555600000002L170.666667-71.11111100000005v170.666667H56.888889V782.222222h910.222222v-682.666666H386.844444z m-22.755555 56.888888H910.222222V725.333333H113.777778v-568.888889h113.777778v-108.088888L364.088889 156.44444399999998zM227.555556 384h568.888888v-56.888889H227.555556V384z m0 170.666667h568.888888v-56.888889H227.555556V554.666667z"  horiz-adv-x="1024" />

    
    <glyph glyph-name="touru" unicode="&#58903;" d="M868.48 759.42H743.77a28.8 28.8 0 0 1 0-57.6h124.71a34.15 34.15 0 0 0 34.11-34.11v-566.92a34.15 34.15 0 0 0-34.11-34.11H155.72a34.15 34.15 0 0 0-34.11 34.11V667.71a34.15 34.15 0 0 0 34.11 34.11h120.89a28.8 28.8 0 0 1 0 57.6H155.72A91.81 91.81 0 0 1 64 667.71v-566.92a91.81 91.81 0 0 1 91.71-91.71h712.77a91.81 91.81 0 0 1 91.71 91.71V667.71a91.81 91.81 0 0 1-91.71 91.71zM453.23 631.12h118.1v-60.49h-118.1zM453.23 749.37h118.1v-60.49h-118.1zM479.21 231.76c18.19-20.4 47.65-20.4 65.78 0l131.55 147.75c18.07 20.28 18.07 53.15 0.18 73.55h-105.4v60.5H453.23v-60.49H347.48c-17.89-20.4-17.89-53.21 0.18-73.55z"  horiz-adv-x="1024" />

    
    <glyph glyph-name="tijianyi" unicode="&#58915;" d="M999.50903281 745.20771299A308.97008877 308.97008877 0 0 1 575.87956631 754.5217804700001a308.97008877 308.97008877 0 0 1-423.62946738-9.31406748 302.54659453 302.54659453 0 0 1 0-430.69531114l354.8980749-351.68632734a96.35241885 96.35241885 0 0 1 137.46278408 0l354.8980749 351.36515303a302.54659453 302.54659453 0 0 1 0 431.01648545z m-45.92798613-385.40967451L598.68297177 8.111711130000003a32.11747295 32.11747295 0 0 0-45.60681181 1e-8L197.85690987 359.79803847999995a238.95399815 238.95399815 0 0 0 0 340.12403789A243.77161904 243.77161904 0 0 0 532.19980302 705.38204677L575.87956631 667.80460342 619.2381544 705.38204677a243.77161904 243.77161904 0 0 0 334.34289227-7.06584374 238.95399815 238.95399815 0 0 0 1e-8-338.51816455zM359.08662412 673.26457383A136.49925938 136.49925938 0 0 1 222.58736474 536.76531445a16.05873604 16.05873604 0 0 1 32.11747208 0A104.38178643 104.38178643 0 0 0 359.08662412 641.14710088a16.05873604 16.05873604 0 0 1 0 32.11747295z"  horiz-adv-x="1170" />

    
    <glyph glyph-name="geren" unicode="&#58891;" d="M588 40.6H436c-64.5 0-125.5 0-169.8 6.8-21.6 3.3-87.3 13.4-87.3 67.2v14.9c0 139.7 115.4 253.3 257.2 253.3h152c141.8 0 257.2-113.6 257.2-253.3v-14.9c0-52.6-65.7-63-87.2-66.5-44-7-103-7.5-170.1-7.5zM436 339.5c-117.9 0-213.9-94.2-213.9-210v-14.9c0-13.7 27.5-20.8 50.6-24.4 41.1-6.3 100.4-6.3 163.2-6.3h152c65.2 0 122.5 0.5 163.1 7 15.3 2.4 50.7 9.6 50.7 23.7v14.9c0 115.8-96 210-213.9 210H436z m75.4 83.9c-112.5 0-204 90.2-204 201s91.5 201 204 201 204-90.2 204-201-91.5-201-204-201z m0 358.7c-88.6 0-160.7-70.7-160.7-157.7 0-87 72.1-157.7 160.7-157.7s160.7 70.7 160.7 157.7c0 87-72.1 157.7-160.7 157.7z"  horiz-adv-x="1024" />

    
    <glyph glyph-name="xiaoshou" unicode="&#58925;" d="M785.06666667 588.8v-136.53333333H580.26666667V657.06666667h136.53333333L512 861.86666667 307.2 657.06666667h136.53333333v-204.8H238.93333333V588.8L34.13333333 384l68.26666667-68.26666667 136.53333333-136.53333333V315.73333333000005h204.8v-204.8H307.2l204.8-204.8 68.26666667 68.26666667 136.53333333 136.53333333H580.26666667V315.73333333000005h204.8v-136.53333333l204.8 204.8-204.8 204.8z"  horiz-adv-x="1024" />

    
    <glyph glyph-name="baobiaopeizhi" unicode="&#59011;" d="M843.53066667 103.13599999999997l-37.17333334 7.46666667a12.24533333 12.24533333 0 0 0-9.088 7.86133333q-1.84533333 5.088-4.128 9.952a12.24533333 12.24533333 0 0 0 0.864 11.98933333l21.03466667 31.54133334a12.192 12.192 0 0 1-1.52533333 15.38133333l-20.34133334 20.32a12.192 12.192 0 0 1-15.38133333 1.52533333l-31.552-21.024a12.24533333 12.24533333 0 0 0-11.98933333-0.864q-4.864 2.272-9.952 4.128a12.24533333 12.24533333 0 0 0-7.86133334 9.088l-7.46666666 37.17333334a12.192 12.192 0 0 1-11.91466667 9.792h-28.8a12.192 12.192 0 0 1-11.95733333-9.80266667l-7.46666667-37.17333333a12.24533333 12.24533333 0 0 0-7.86133333-9.088q-5.088-1.84533333-9.952-4.128a12.24533333 12.24533333 0 0 0-11.98933334 0.864l-31.488 21.03466666a12.192 12.192 0 0 1-15.38133333-1.52533333l-20.34133333-20.34133333a12.192 12.192 0 0 1-1.52533334-15.38133334l21.03466667-31.54133333a12.24533333 12.24533333 0 0 0 0.864-11.98933333q-2.272-4.864-4.128-9.952a12.24533333 12.24533333 0 0 0-9.088-7.86133334l-37.17333333-7.46666666a12.192 12.192 0 0 1-9.80266667-11.92533334v-28.8a12.192 12.192 0 0 1 9.80266667-11.95733333l37.17333333-7.46666667a12.24533333 12.24533333 0 0 0 9.088-7.86133333q1.84533333-5.088 4.128-9.952a12.24533333 12.24533333 0 0 0-0.864-11.98933333l-21.03466667-31.488a12.192 12.192 0 0 1 1.52533334-15.38133334l20.34133333-20.34133333a12.192 12.192 0 0 1 15.38133333-1.52533333l31.54133334 21.03466666a12.24533333 12.24533333 0 0 0 11.98933333 0.864q4.864-2.272 9.952-4.128a12.24533333 12.24533333 0 0 0 7.86133333-9.088l7.46666667-37.17333333a12.192 12.192 0 0 1 11.92533333-9.80266667h28.8a12.192 12.192 0 0 1 11.95733334 9.80266667l7.46666666 37.17333333a12.24533333 12.24533333 0 0 0 7.86133334 9.088q5.088 1.84533333 9.952 4.128a12.24533333 12.24533333 0 0 0 11.98933333-0.864l31.54133333-21.03466666a12.192 12.192 0 0 1 15.38133334 1.52533333l20.34133333 20.34133333a12.192 12.192 0 0 1 1.52533333 15.38133334l-21.07733333 31.552a12.24533333 12.24533333 0 0 0-0.864 11.98933333q2.272 4.864 4.128 9.952a12.24533333 12.24533333 0 0 0 9.088 7.86133333l37.17333333 7.46666667a12.192 12.192 0 0 1 9.792 11.91466667v28.8a12.192 12.192 0 0 1-9.80266666 11.92533333z m-109.14133334-78.05866667A73.14133333 73.14133333 0 1 0 755.808 76.79999999999995a72.66133333 72.66133333 0 0 0-21.41866667-51.72266667zM307.2 622.93333333h409.6v-68.26666666H307.2zM307.2 486.4h409.6v-68.26666667H307.2zM307.2 349.86666667h409.6v-68.26666667H307.2zM785.06666667 759.46666667H644.26666667a136.53333333 136.53333333 0 0 1-264.53333334 0H238.93333333a68.46933333 68.46933333 0 0 1-68.26666666-68.26666667v-716.8a68.46933333 68.46933333 0 0 1 68.26666666-68.26666667h273.06666667v68.26666667H238.93333333V691.2h546.13333334v-443.73333333h68.26666666V691.2a68.46933333 68.46933333 0 0 1-68.26666666 68.26666667z m-307.2 34.13333333a34.13333333 34.13333333 0 1 0 34.13333333-34.13333333 34.13333333 34.13333333 0 0 0-34.13333333 34.13333333z"  horiz-adv-x="1024" />

    
    <glyph glyph-name="quxiao" unicode="&#58880;" d="M968.98495525 16.53495529999998L601.54580133 383.98187645999997 968.98495525 751.4650447c11.97836263 11.97836263 18.56756243 27.90506699 18.55720614 44.84668935-0.01294539 16.89113537-6.59049435 32.74664012-18.52484267 44.6460359-11.94988278 11.98224624-27.82351107 18.57274059-44.71723552 18.58180235-16.96621858 0-32.87479941-6.58919981-44.84280573-18.55073342L512.02847984 473.55615763 144.53236622 840.98883888c-11.96282817 11.96153363-27.85846361 18.55073343-44.76254435 18.55073342-16.90019714 0-32.79712711-6.58661072-44.75866075-18.54814435-11.95765002-11.92528656-18.54296621-27.78855854-18.55461703-44.6796939-0.0103563-16.94162237 6.5788435-32.86832672 18.55461703-44.84539482l367.49093547-367.48316822L55.01116112 16.53236621999997c-11.9641227-11.96282817-18.55332251-27.85587453-18.55332251-44.75995529 0-16.90149168 6.59049435-32.79971618 18.55461705-44.76383888 11.96153363-11.96153363 27.85716907-18.54814435 44.75736621-18.54814435 16.90278622 0 32.80101072 6.58661072 44.76254435 18.54814435l367.4883464 367.44174301 367.44433208-367.44174301c11.96153363-11.96153363 27.87270352-18.54814435 44.79879143-18.54814435 16.93644421 0.0103563 32.7932435 6.58919981 44.6965229 18.51966451 24.69979022 24.7023793 24.70626291 64.87190187 0.02589076 89.55356856z"  horiz-adv-x="1024" />

    
    <glyph glyph-name="zidongcaigou-dao" unicode="&#58898;" d="M374.4576 32.34666666999999c0.45546667-1.40906667 0.8768-2.83733333 1.26506667-4.2848 12.40533333-46.2944-15.0688-93.87946667-61.36426667-106.2848-46.2944-12.40533333-93.87946667 15.0688-106.2848 61.36426666-12.40426667 46.2944 15.0688 93.87946667 61.36426667 106.2848a88.09813333 88.09813333 0 0 0 5.4464 1.27573334L123.97866667 653.888a15.8688 15.8688 0 0 1-7.39306667 9.63626667L42.06933333 706.54613333c-7.5904 4.38186667-10.19093333 14.08746667-5.808 21.6768l7.93386667 13.74293334c4.38186667 7.58933333 14.08746667 10.18986667 21.6768 5.808l91.59253333-52.88106667a15.8688 15.8688 0 0 0 7.39306667-9.6352L325.536 85.60320000000002a87.2928 87.2928 0 0 0 19.94773333-11.7344l620.29653334 166.208c8.46506667 2.26773333 17.16586667-2.7552 19.43466666-11.22133333l4.10666667-15.328c2.2688-8.46506667-2.7552-17.16586667-11.22133333-19.43466667L374.45866667 32.34666666999999z m-72.42026667-64.58666667c20.8992 5.6 33.30133333 27.08266667 27.70133334 47.9808-5.6 20.8992-27.08053333 33.30133333-47.97973334 27.70133333s-33.30133333-27.0816-27.70133333-47.97973333c5.6-20.8992 27.0816-33.30133333 47.97973333-27.70133333z m-34.13653333 684.95253333l122.69866667-457.92c2.2688-8.46613333 10.97066667-13.48906667 19.43466666-11.22133333l457.92 122.69866667c8.46613333 2.2688 13.49013333 10.97066667 11.22133334 19.43466666l-122.69866667 457.92c-2.2688 8.46613333-10.9696 13.49013333-19.43466667 11.22133334l-457.92-122.69866667c-8.46613333-2.2688-13.48906667-10.9696-11.22133333-19.43466667z m-31.75573333 57.20426667l519.232 139.12746667c16.93013333 4.53653333 34.3328-5.51146667 38.86933333-22.44266667L933.37386667 307.37066667c4.53653333-16.93013333-5.51146667-34.3328-22.44266667-38.86933334L391.70133333 129.37386666999998c-16.93013333-4.53653333-34.3328 5.5104-38.86933333 22.4416l-139.12746667 519.232c-4.53653333 16.93013333 5.5104 34.3328 22.4416 38.86933333z m257.632-434.59946667l-4.10773334 15.328c-2.26773333 8.46506667 2.7552 17.16586667 11.22133334 19.43466667l291.3632 78.0704c8.46613333 2.2688 17.16693333-2.7552 19.43466666-11.22133333l4.10773334-15.328c2.2688-8.46506667-2.7552-17.16586667-11.22133334-19.43466667L513.2128 264.096c-8.46613333-2.26773333-17.16693333 2.7552-19.43466667 11.22133333z m108.10666666 123.4304l-4.10666666 15.328c-2.26773333 8.46506667 2.75626667 17.16586667 11.22133333 19.43466667l159.64053333 42.77546667c8.46506667 2.26773333 17.16586667-2.7552 19.43466667-11.22133334l4.10666667-15.328c2.2688-8.46506667-2.7552-17.16586667-11.22133334-19.43466666l-159.63946666-42.77546667c-8.46506667-2.26773333-17.16693333 2.7552-19.43466667 11.22133333z m-3.36853333 93.0464l-4.10666667 15.328c-2.2688 8.46506667 2.7552 17.16693333 11.22026667 19.43466667l139.568 37.39733333c8.46506667 2.26773333 17.16586667-2.7552 19.43466667-11.22133333l4.10666666-15.328c2.2688-8.46506667-2.7552-17.16586667-11.22133333-19.43466667l-139.56693333-37.39733333c-8.46506667-2.26773333-17.16693333 2.75626667-19.43466667 11.22133333z"  horiz-adv-x="1024" />

    
    <glyph glyph-name="tijiao" unicode="&#58907;" d="M977.355076 335.902329c-25.59861401 0-46.589477-19.454947-46.589477-43.51764301l-6.143667-336.36578599H93.690927V812.5485189999999h373.227789c24.574669 0 44.541588 18.43100201 44.541588 41.469754C511.460304 877.56899801 491.49338601 896 466.918716 896H33.27819799C24.574669 896 15.871141 892.92816599 9.727473 888.320416 3.58380601 883.200693 0 876.033081 0 868.865469v-970.187464c0-7.167612 3.58380599-14.335224 9.727473-18.942974 6.143667-5.119723 14.847196-8.191556 23.55072501-7.679584h951.24448999c8.703529 0 16.895085 3.07183399 23.038753 7.679584 6.143667 5.119723 9.727473 11.77536199 9.72747301 18.942974L1023.944553 291.872713c0 24.574669-20.990863 44.029616-46.589477 44.029616zM320.494645 442.904535c-11.26339001 12.799307-30.718337 13.823251-43.51764301 2.559862s-13.823251-30.718337-2.55986199-43.517644L471.014495 179.23881300000005c5.631695-6.65564 14.335224-10.23944599 23.038752-10.239446h1.023945c9.215501 0 17.407057 4.60775001 23.038752 11.775362l376.299623 478.182107c10.23944599 13.311279 8.191556 32.76622601-5.119722 43.005671s-32.76622601 8.191556-43.005672-5.119723l-353.26087099-449.511659-172.53465701 195.57341z"  horiz-adv-x="1024" />

    
    <glyph glyph-name="sousuo1" unicode="&#58888;" d="M977.54681281-81.58681031000003a48.63726375 48.63726375 0 0 0-69.15610969 0l-141.99201281 142.03201031a48.87725063 48.87725063 0 1 0 69.11611219 69.11611219l142.03201031-141.99201282a48.67726219 48.67726219 0 0 0 0-69.15610968z m-526.89036187 108.27390937c-115.59349781 0-220.22761219 46.837365-295.98335157 122.59310438l10.15942875-19.75888875C82.75714531 209.99678812000002 32 329.71005375000004 32 445.34354906 32 676.57054312 219.42945688 864 450.65645094 864c231.22699312 0 418.69644844-187.42945687 418.6964475-418.65645094 0-115.63349531-46.87736344-220.30760813-122.67309938-296.06334562a417.336525 417.336525 0 0 0-296.02334812-122.59310438zM451.97637594 784.00449938a339.98087625 339.98087625 0 1 1 0.03999844-680.00174907A339.98087625 339.98087625 0 0 1 451.97637594 784.00449938z"  horiz-adv-x="1024" />

    
    <glyph glyph-name="shangpin" unicode="&#58959;" d="M754.36800031 192c-50.112-83.00800031-142.464-134.208-242.43200062-134.4-100.032 0.192-192.384 51.39199969-242.55999938 134.4a37.12000031 37.12000031 0 0 0-1.21600031 39.29599969 40.32 40.32 0 0 0 35.52 19.71200062c14.71999969-0.192 28.09600031-8.12800031 34.87999969-20.60800031 35.904-59.328 101.88799969-95.87200031 173.376-96 71.424 0.12799969 137.34400031 36.672 173.184 96a40.32 40.32 0 0 0 34.68800062 19.392 40.32 40.32 0 0 0 34.752-19.2 37.12000031 37.12000031 0 0 0-0.12800062-38.592M864.32 672H143.67999969C99.71199969 672 64.064 637.75999969 63.99999969 595.5199996900001v-614.91199969C63.99999969-61.63199999999995 99.71199969-96 143.67999969-96h720.64000031c44.03200031 0.06400031 79.61599969 34.30399969 79.68 76.54399969V595.45600031c0 42.24-35.712 76.48000031-79.68 76.54399969m-360.31999969 115.2c66.17599969 0 120-51.71200031 120-115.2H704c0 105.85600031-89.72800031 192-199.99999969 192S303.99999969 777.85600031 303.99999969 672H384.00000031c0 63.48799969 53.82400031 115.2 120 115.2"  horiz-adv-x="1024" />

    
    <glyph glyph-name="baobiaoguanli" unicode="&#58884;" d="M533 369L362 540l-210-213 42-42 171 171 171-171L872 621l-42 42-297-294zM992 144V804H542V864h-60v-60H32v-660h450v-60h3L272-66v-30h60l180 120 180-120h60v30l-210 150v60h450zM92 204V744h840v-540H92z"  horiz-adv-x="1024" />

    
    <glyph glyph-name="suo" unicode="&#59113;" d="M800-84H224c-52.8 0-96 43.2-96 96V396c0 52.8 43.2 96 96 96h576c52.8 0 96-43.2 96-96v-384c0-52.8-43.2-96-96-96zM224 428.00000001c-17.6 0-32-14.4-32-32.00000001v-384c0-17.6 14.4-32 32-32h576c17.6 0 32 14.4 32 32V396c0 17.6-14.4 32-32 32.00000001H224z m528 31.99999999c-17.6 0-32 14.4-32 32V604c0 115.2-92.8 208-208 208.00000001s-208-92.8-208-208.00000001v-112c0-17.6-14.4-32-32-32s-32 14.4-32 32V604C240 754.40000001 361.6 876 512 876s272-121.6 272-272v-112c0-17.6-14.4-32-32-32z"  horiz-adv-x="1024" />

    
    <glyph glyph-name="shanchu" unicode="&#58906;" d="M512 12.799999999999955A371.2 371.2 0 1 1 140.8 384 371.2 371.2 0 0 1 512 12.799999999999955z m0-64a435.2 435.2 0 1 0 435.2 435.2 435.2 435.2 0 0 0-435.2-435.2zM557.056 384l122.368-122.368a31.744 31.744 0 1 0-45.056-45.056L512 338.94399999999996l-122.368-122.368a31.744 31.744 0 1 0-45.056 45.056L466.944 384 344.576 506.368a31.744 31.744 0 1 0 45.056 45.056L512 429.056l122.368 122.368a31.744 31.744 0 1 0 45.056-45.056z"  horiz-adv-x="1024" />

    
    <glyph glyph-name="bianji" unicode="&#58918;" d="M948.90666667 347.59111111000004v-327.46154666C948.90666667-20.211484449999944 915.70176-52.90666667000005 875.94325333-52.90666667000005h-727.81368888A73.32750222 73.32750222 0 0 0 75.09333333 20.129564449999975v727.81368888C75.09333333 788.21148445 108.29824 820.90666667 148.12956445 820.90666667H548.40888889a36.40888889 36.40888889 0 0 1 0 72.81777778H148.34801778A145.99964445 145.99964445 0 0 1 2.27555555 747.65198222v-727.30396444C2.27555555-60.40689778000001 67.66592-125.72444444999996 148.34801778-125.72444444999996h727.30396444A145.99964445 145.99964445 0 0 1 1021.72444445 20.348017779999964V347.59111111000004a36.40888889 36.40888889 0 1 1-72.81777778 0z m-505.06410667-84.83271111L997.33048889 816.24632889a36.40888889 36.40888889 0 0 1 0.21845333 51.70062222 36.99143111 36.99143111 0 0 1-51.77344-0.21845333l-553.41511111-553.41511111a36.55452445 36.55452445 0 0 1-0.21845333-51.77344c13.76256-13.83537778 37.35552-14.12664889 51.70062222 0.21845333z"  horiz-adv-x="1024" />

    
    <glyph glyph-name="zonghetiyanguan" unicode="&#58917;" d="M512 472.65564445a309.47555555 309.47555555 0 0 0 297.82471111 18.20444444 303.46808889 303.46808889 0 1 1-595.64942222 0 309.47555555 309.47555555 0 0 0 297.82471111-18.20444444zM280.9856 458.09208889a248.67271111 248.67271111 0 0 1 114.50595555-127.43111111 306.74488889 306.74488889 0 0 0 70.63324445 105.58577777 254.86222222 254.86222222 0 0 1-185.1392 21.84533334zM594.83022222 218.52160000000003a240.66275555 240.66275555 0 0 1-3.09475555 38.22933333 307.65511111 307.65511111 0 0 0-159.47093334 0 240.66275555 240.66275555 0 0 1-3.09475555-38.22933333A246.12408889 246.12408889 0 0 1 512 33.38239999999996a246.12408889 246.12408889 0 0 1 82.83022222 185.1392zM743.0144 458.09208889a253.76995555 253.76995555 0 0 1-185.1392-22.02737778 304.37831111 304.37831111 0 0 0 70.63324445-105.58577778 248.67271111 248.67271111 0 0 1 114.50595555 127.61315556zM577.35395555 310.08995555A251.76746667 251.76746667 0 0 1 512 403.47875555a251.76746667 251.76746667 0 0 1-65.35395555-93.3888 252.49564445 252.49564445 0 0 1 130.7079111 0zM809.82471111 491.22417778a303.28604445 303.28604445 0 0 0-165.4784-214.6304 306.3808 306.3808 0 0 0-115.78026666-302.73991111l-15.65582223-11.83288889a301.82968889 301.82968889 0 0 1 163.84-48.96995556 303.83217778 303.83217778 0 0 1 132.34631111 578.17315556zM374.01031111 218.52160000000003a304.92444445 304.92444445 0 0 0 5.64337778 58.07217778 303.28604445 303.28604445 0 0 0-165.4784 214.6304 303.83217778 303.83217778 0 0 1 132.34631111-578.17315556 301.82968889 301.82968889 0 0 1 163.84 48.96995556l-15.65582222 11.83288889a304.37831111 304.37831111 0 0 0-120.69546667 244.66773333z"  horiz-adv-x="1024" />

    
    <glyph glyph-name="kucunguanli" unicode="&#58971;" d="M59.52607911 484.39893604c0 55.60401788 35.99681465 127.44682105 80.64090815 160.27631679C140.16698726 644.67525283 461.72512038 886.7488005 512 886.7488005s372.33576251-242.42547135 372.33576251-242.42547135c44.24189399-32.67867255 80.13815839-104.16955205 80.13815838-159.87411872v-452.22254599A100.49948482 100.49948482 0 0 0 864.1755351-68.47392089000004H159.8244649A100.39893604 100.39893604 0 0 0 59.52607911 32.226664440000036v452.1722716z m201.0995199 49.97323033v-99.64481284c0-28.45558262 22.72424629-50.72735353 50.77762938-50.72735353h99.54426261c28.50585701 0 50.77762939 22.72424629 50.77762938 50.77762939v99.5442626c0 28.50585701-22.72424629 50.77762939-50.77762938 50.77762791h-99.54426261c-28.50585701 0-50.77762939-22.72424629-50.77762938-50.77762791z m366.3027769 56.50896573l-70.38483264-70.43510703c-20.10995154-20.10995154-19.85857813-51.98422652 0-71.79252877l70.38483264-70.38483264c20.10995154-20.10995154 51.98422652-19.85857813 71.79252877 0l70.38483265 70.38483264c20.10995154 20.10995154 19.85857813 51.98422652 0 71.79252877l-70.38483265 70.38483115c-20.10995154 20.10995154-51.98422652 19.85857813-71.79252877 0zM260.62559901 232.67261138000003v-99.64481283c0-28.45558262 22.72424629-50.72735353 50.77762938-50.72735354h99.54426261c28.50585701 0 50.77762939 22.72424629 50.77762938 50.77762793v99.54426259c0 28.50585701-22.72424629 50.77762939-50.77762938 50.77762939h-99.54426261c-28.50585701 0-50.77762939-22.72424629-50.77762938-50.77762939z m301.64928061 0v-99.64481283c0-28.45558262 22.72424629-50.72735353 50.77762938-50.72735354h99.54426261c28.50585701 0 50.77762939 22.72424629 50.77762938 50.77762793v99.54426259c0 28.50585701-22.72424629 50.77762939-50.77762938 50.77762939h-99.54426261c-28.50585701 0-50.77762939-22.72424629-50.77762938-50.77762939z"  horiz-adv-x="1024" />

    
    <glyph glyph-name="daochu" unicode="&#58908;" d="M686.49600031 864h261.8112c12.06400031 0 22.34239969-4.26880031 30.8479997-12.92800031 8.55040031-8.40319969 12.81919969-18.66880031 12.81919968-30.80319936V558.52800001c0-12.1344-4.26880031-22.39999969-12.81279938-30.93760032-8.51200031-8.53120031-18.79039969-12.79999969-30.8544-12.79999969-12.0576 0-22.33600031 4.26880031-30.84800061 12.79999969-8.5567997 8.53759969-12.8064 18.80320031-12.80640001 30.9376003V714.9312L542.57919969 352.93439999c-8.38399969-8.40319969-18.61120031-12.672-30.6816-12.672-12.50560031 0-22.89280031 4.14079969-31.2 12.40320002-8.30719969 8.40319969-12.42880031 18.80320031-12.42879938 31.19999999 0 12.1344 4.17919969 22.272 12.5887997 30.80320031l362.0800003 361.9968h-156.48c-12.0576 0-22.31040001 4.26880031-30.8736 12.79999968-8.49280031 8.53759969-12.78719999 18.80320031-12.7872 30.80320031 0 12.1344 4.29439969 22.39999969 12.7872 30.93120001 8.56319999 8.53120031 18.816 12.79999969 30.86719968 12.79999969h0.04480032z m-523.64800031 0h305.4528c12.05119969 0 22.30399969-4.26880031 30.86719969-12.92800031 8.5056-8.40319969 12.78719999-18.66880031 12.78719998-30.80319936 0-12-4.28800031-22.272-12.78719998-30.80320034-8.56319999-8.53120031-18.816-12.79999969-30.86719969-12.79999968H162.848c-12.04480031 0-22.33600031-4.26239999-30.82879969-12.80000062-8.57599968-8.53120031-12.81280031-18.7968-12.8128003-30.93119999v-698.13759939c0-12 4.23679969-22.26559969 12.8128003-30.7968 8.49280031-8.53120031 18.78400031-12.79999969 30.82879969-12.80000062h698.1760003c12.05119969 0 22.30399969 4.26880031 30.86719968 12.80000062 8.5056 8.53120031 12.78719999 18.80320031 12.78720002 30.80319938V340.26240000999996c0 12 4.28800031 22.26559969 12.78719999 30.7968 8.5567997 8.53759969 18.82240031 12.79999969 30.88000032 12.79999968 12.05119969 0 22.30399969-4.26239999 30.86719968-12.79999968 8.49280031-8.53120031 12.78719999-18.7968 12.78720001-30.7968v-305.47200001c0-36.12799969-12.78719999-66.93120001-38.34880031-92.53120031-25.5744-25.60000031-56.44159969-38.2656-92.544-38.2656H162.90559999c-36.14719969 0-66.96319969 12.672-92.5504003 38.27200031-25.5744 25.60000031-38.36160001 56.39680031-38.3616 92.53120031V732.92800031c0 36.13439999 12.78719999 66.93120001 38.3616 92.53119938 25.58719969 25.60000031 56.40319969 38.4 92.5504003 38.4L162.848 864z"  horiz-adv-x="1024" />

    
    <glyph glyph-name="youjian" unicode="&#58938;" d="M943.61842742 672.38307454H285.90581649c-4.06963056 0-8.55526778-0.75966468-13.4870578-2.25487685l342.33130503-274.54030086 342.33130431 274.54030086c-4.93178931 1.49521216-9.41742653 2.25487685-13.48705707 2.25487685h0.02411646z m41.08819716-535.57545712V586.78818987L640.43395531 310.61400771c-7.25901555-6.02908233-15.83839979-9.02553632-25.68389159-9.02553632-9.83946286 0-18.41884711 2.99645401-25.68389159 9.02553632L244.78144425 586.78818987V136.80761742000004c0-11.37687903 4.03345623-21.05958523 12.04610678-29.15664305 8.0789703-8.0186795 17.72550289-12.05816537 29.07826546-12.05816537h657.71261093c11.34673362 0 21.0414977 4.03948514 29.06017719 12.05816537 8.0608835 8.09705783 12.07625218 17.77976403 12.07625219 29.15664305h-0.04823222zM285.88170002 754.78857422h657.71261094c34.01608369 0 63.1064063-12.07022324 87.19861984-36.20464081C1054.87308648 694.437458 1066.9071354 665.30493141 1066.9071354 631.19238258v-494.38476516c0-34.10049096-12.0340489-63.24507543-36.1142046-87.39155084-24.09221356-24.13441756-53.18253687-36.20464081-87.19861984-36.2046408H285.88170002c-34.04020014 0-63.12449382 12.07022324-87.19862056 36.2046408C174.59086589 73.56254200000001 162.54475911 102.70712647000005 162.54475911 136.80761742000004v494.38476516c0 34.11254883 12.04610678 63.24507543 36.13832034 87.39155084C222.76323513 742.71835098 251.84149987 754.78857422 285.88170002 754.78857422z"  horiz-adv-x="1248" />

    
    <glyph glyph-name="kucun" unicode="&#58912;" d="M89.15968 387.99872c152.3712 152.3968 304.74752 304.768 457.1136 457.1392h-36.20352c152.47872-152.48384 304.95232-304.96768 457.42592-457.47712 23.36256-23.38304 59.56608 12.85632 36.1984 36.22912L546.26816 881.34144c-9.86112 9.86112-26.3424 9.86112-36.20352 0L52.94592 424.22272c-23.35744-23.36768 12.84608-59.60704 36.21376-36.224zM829.88544-41.400319999999965H225.94048c-29.96224 0-31.232 27.20256-31.232 49.00864v367.68256c0 33.01888-51.2 33.01888-51.2 0v-369.94048c0-31.02208 5.504-59.7504 31.6416-80.36352 19.6864-15.52896 42.0608-17.59232 65.7664-17.59232h588.96896c33.01376 0.00512 33.01376 51.20512 0 51.20512zM860.60544 375.29600000000005v-312.17152c0-33.01376 51.2-33.01376 51.2 0V375.29600000000005c0 33.01888-51.2 33.01888-51.2 0zM415.57504 293.4528H289.28l25.6-25.6V394.14784l-25.6-25.6h126.29504l-25.6 25.6v-126.29504c0-33.01376 51.2-33.01376 51.2 0V394.14784c0 13.95712-11.64288 25.6-25.6 25.6H289.28c-13.95712 0-25.6-11.64288-25.6-25.6v-126.29504c0-13.95712 11.64288-25.6 25.6-25.6h126.29504c33.01888 0 33.01888 51.2 0 51.2zM636.47744 69.10976000000005H510.17728l25.6-25.6v126.29504l-25.6-25.6h126.30016l-25.6 25.6v-126.29504c0-33.01376 51.2-33.01376 51.2 0v126.29504c0 13.95712-11.648 25.6-25.6 25.6H510.17728c-13.95712 0-25.6-11.64288-25.6-25.6v-126.29504c0-13.95712 11.64288-25.6 25.6-25.6h126.30016c33.01376 0 33.01376 51.2 0 51.2zM415.57504 70.57407999999998H289.28l25.6-25.6v126.29504l-25.6-25.6h126.29504l-25.6 25.6v-126.29504c0-33.01376 51.2-33.01376 51.2 0v126.29504c0 13.95712-11.64288 25.6-25.6 25.6H289.28c-13.95712 0-25.6-11.64288-25.6-25.6v-126.29504c0-13.95712 11.64288-25.6 25.6-25.6h126.29504c33.01888 0 33.01888 51.2 0 51.2z"  horiz-adv-x="1024" />

    
    <glyph glyph-name="tishi" unicode="&#59040;" d="M511.15045973-99.75277013000004a482.96391147 482.96391147 0 0 0-342.6683264 141.99466666A482.96391147 482.96391147 0 0 0 26.54814827 384.78885973 482.90322987 482.90322987 0 0 0 168.54281493 727.45718507 482.96391147 482.96391147 0 0 0 511.08977813 869.45185173a482.96391147 482.96391147 0 0 0 342.66832534-141.99466666 482.96391147 482.96391147 0 0 0 141.99466666-342.6076448 482.96391147 482.96391147 0 0 0-141.99466666-342.66832534 482.96391147 482.96391147 0 0 0-342.66832534-141.99466666z m0 900.39182186c-111.04711147 0-215.41925973-43.26589653-294.00177813-121.78773333a413.0588448 413.0588448 0 0 1-121.78773333-294.00177813c0-111.04711147 43.26589653-215.47994027 121.78773333-294.00177707a413.0588448 413.0588448 0 0 1 294.00177813-121.78773333c111.04711147 0 215.47994027 43.26589653 294.00177707 121.78773333a413.0588448 413.0588448 0 0 1 121.78773333 294.00177707c0 111.04711147-43.26589653 215.41925973-121.78773333 294.00177813a413.0588448 413.0588448 0 0 1-294.00177707 121.78773333z m0-113.1709632c16.74808853 0 39.92841493-14.5635552 39.92841387-34.1636736v-353.9550816c0-19.5394368-23.1803264-35.01321493-39.92841387-35.01321493s-39.92841493 15.47377813-39.92841493 35.01321493V653.30441493c0 19.6001184 23.1803264 34.1636736 39.92841493 34.1636736z m5.33997014-603.17392533a60.6814816 60.6814816 0 1 0 0 121.3629632 60.6814816 60.6814816 0 0 0 0-121.3629632z"  horiz-adv-x="1024" />

    
    <glyph glyph-name="baocun" unicode="&#58953;" d="M894.06577778 892.35911111h-35.95377778v0.91022222H166.00177778v-0.91022222h-35.95377778c-70.31466667 0-127.31733333-56.88888889-127.31733333-127.20355556v-763.22133333c0-70.31466667 57.00266667-127.20355555 127.31733333-127.20355555h764.01777778c70.31466667 0 127.31733333 57.00266667 127.31733333 127.20355555V765.15555555c0 70.20088889-57.11644445 127.20355555-127.31733333 127.20355556z m-646.144-80.896H775.96444445v-163.61244444c0-30.15111111-26.28266667-54.61333333-58.70933334-54.61333334H306.63111111c-32.42666667 0-58.70933333 24.46222222-58.70933333 54.61333334V811.46311111z m692.45155555-794.624c0-33.67822222-27.42044445-61.09866667-61.21244444-61.09866666H144.72533333c-33.792 0-61.21244445 27.30666667-61.21244444 61.09866666V750.3644444500001c0 33.67822222 27.42044445 61.09866667 61.21244444 61.09866666h21.16266667V638.8622222199999c0-70.31466667 56.32-127.20355555 125.83822222-127.20355555h440.43377778c69.51822222 0 125.83822222 57.00266667 125.83822222 127.20355555V811.46311111h21.04888889c33.792 0 61.21244445-27.30666667 61.21244444-61.09866666v-733.52533334zM643.98222222 638.40711111c22.528 0 40.96 18.432 40.96 40.96v45.51111111c0 22.528-18.432 40.96-40.96 40.96s-40.96-18.432-40.96-40.96v-45.51111111c0-22.528 18.432-40.96 40.96-40.96z"  horiz-adv-x="1024" />

    
    <glyph glyph-name="shujupingtai-dao" unicode="&#58935;" d="M512-95.03225681000004c-269.65232197 0-488.94710518 219.2947832-488.94710518 488.9471052 0 269.65232197 219.2947832 488.94710518 488.94710518 488.94710518h23.17223506v-465.77487011h465.77487012v-23.17223507C1000.94710518 124.26252640999996 781.65232197-95.03225681000004 512-95.03225681000004z m-23.17223506 931.03192495C255.42251457 823.9604622100001 69.26791111 630.29753679 69.26791111 393.91484839c0-244.14991803 198.58217086-442.73208889 442.73208889-442.7320889 236.38268839 0 430.04561383 186.15460347 442.08481975 419.55985384H488.82776494V835.99966814zM961.72259555 470.42206024h-359.8816395v359.88163951h23.17223506c185.63678815 0 336.57995061-151.0726163 336.57995062-336.57995062v-23.30168889z m-313.53716938 46.34447012h266.28652247c-11.26248297 141.75194075-124.66403555 255.15349333-266.28652247 266.28652247v-266.28652247z"  horiz-adv-x="1024" />

    
    <glyph glyph-name="guanbi1" unicode="&#58922;" d="M924.549 558.293c-22.553 53.321-54.833 101.202-95.943 142.312-41.11 41.11-88.991 73.39-142.313 95.943-55.221 23.357-113.861 35.2-174.293 35.2S392.928 819.905 337.707 796.549c-53.321-22.553-101.202-54.833-142.312-95.943-41.11-41.11-73.39-88.991-95.943-142.312-23.357-55.222-35.2-113.862-35.2-174.294s11.843-119.072 35.199-174.293c22.553-53.321 54.833-101.202 95.943-142.313 41.11-41.11 88.991-73.391 142.312-95.943 55.221-23.356 113.862-35.199 174.293-35.199s119.072 11.843 174.293 35.199c53.321 22.553 101.202 54.833 142.313 95.943s73.391 88.991 95.943 142.313c23.356 55.221 35.199 113.861 35.199 174.293s-11.842 119.072-35.198 174.293zM512-0.252c-211.877 0-384.252 172.375-384.252 384.252S300.123 768.252 512 768.252 896.252 595.877 896.252 384 723.877-0.252 512-0.252zM693.02 565.02c-12.497 12.497-31.492 13.763-42.427 2.828L512 429.255 373.407 567.848c-10.935 10.935-29.93 9.668-42.427-2.828s-13.763-31.492-2.828-42.427L466.745 384 328.152 245.407c-10.935-10.935-9.668-29.93 2.828-42.427 12.497-12.496 31.492-13.763 42.427-2.828L512 338.745l138.593-138.593c10.935-10.935 29.93-9.668 42.427 2.828 12.496 12.497 13.763 31.492 2.828 42.427L557.255 384l138.593 138.593c10.934 10.934 9.668 29.93-2.828 42.427z"  horiz-adv-x="1024" />

    
    <glyph glyph-name="caigou1" unicode="&#59066;" d="M911.355 814h-798.709c-16.918 0-30.636-13.699-30.636-30.793v-214.998h859.98V783.207c0.001 17.075-13.716 30.793-30.635 30.793z m-707.046-161.266c-21.258 0-38.456 17.198-38.456 38.459 0 21.205 17.198 38.404 38.456 38.404 21.205 0 38.404-17.199 38.404-38.404 0-21.261-17.199-38.459-38.404-38.459z m-122.299-667.959c0-17.059 13.718-30.775 30.636-30.775h798.569c16.953 0 30.635 13.717 30.635 30.775v214.979h-859.84v-214.979z m122.299 130.471c21.205 0 38.404-17.198 38.404-38.422 0-21.24-17.199-38.439-38.404-38.439-21.258 0-38.456 17.199-38.456 38.439 0 21.224 17.198 38.422 38.456 38.422z m-122.299 145.919h859.98v245.649h-859.98v-245.649z m122.299 161.283c21.205 0 38.404-17.217 38.404-38.439 0-21.242-17.199-38.423-38.404-38.423-21.258 0-38.456 17.181-38.456 38.423 0 21.222 17.198 38.439 38.456 38.439z"  horiz-adv-x="1024" />

    
    <glyph glyph-name="xinjian1" unicode="&#58988;" d="M972.8 435.2H51.2c-28.16 0-51.2-23.04-51.2-51.2s23.04-51.2 51.2-51.2h921.6c28.16 0 51.2 23.04 51.2 51.2s-23.04 51.2-51.2 51.2zM512 896c-28.16 0-51.2-23.04-51.2-51.2v-921.6c0-28.16 23.04-51.2 51.2-51.2s51.2 23.04 51.2 51.2V844.8c0 28.16-23.04 51.2-51.2 51.2z"  horiz-adv-x="1024" />

    
    <glyph glyph-name="gengduoshezhi-yingyong" unicode="&#58991;" d="M512.473662-127.99857099999997A511.815342 511.815342 0 0 0 313.545433 855.646539a512.050257 512.050257 0 0 0 397.856457-943.659536 508.816424 508.816424 0 0 0-198.928228-39.985574z m0 943.659537C274.559499 815.660966 80.629467 621.7309339999999 80.629467 383.816771s193.930032-431.844194 431.844195-431.844194 431.844194 193.930032 431.844194 431.844194S750.387824 815.660966 512.473662 815.660966zM512.473662 304.84526300000005a78.971508 78.971508 0 1 0 78.971507 78.971508 78.971508 78.971508 0 0 0-78.971507-78.971508z m0 79.971147zM284.555892 304.84526300000005a78.971508 78.971508 0 1 0 78.971508 78.971508 78.971508 78.971508 0 0 0-78.971508-78.971508z m0 79.971147zM740.391431 304.84526300000005a78.971508 78.971508 0 1 0 78.971508 78.971508 78.971508 78.971508 0 0 0-78.971508-78.971508z m0 79.971147z"  horiz-adv-x="1025" />

    
    <glyph glyph-name="zuo-xian" unicode="&#58944;" d="M774.05781251 855.3270009299999a69.75639613 69.75639613 0 0 0 0-94.26540018l-377.06160074-377.06160075 377.06160074-377.06160075a69.75639613 69.75639613 0 0 0-94.26540018-94.26540018L249.94218749 334.03933791A74.46966615 74.46966615 0 0 0 229.20379943 384a69.75639613 69.75639613 0 0 0 20.73838806 49.01800811L675.07914233 855.3270009299999a69.75639613 69.75639613 0 0 0 98.97867018 0z"  horiz-adv-x="1024" />

    
    <glyph glyph-name="weizhi1" unicode="&#58887;" d="M915.74960844 191.18622844000004c-34.37871656 24.726135-83.24256656 44.995305-145.22691656 60.21909281a27.54303563 27.54303563 0 1 1-13.14553969-53.44600969c101.77151813-25.03912406 162.52895156-64.60093875 162.52895156-105.9280125 0-34.27856062-43.64319281-68.24413125-119.73708937-93.19561875-76.93270781-25.2269175-181.97183062-39.69953062-288.16275469-39.69952968-106.41627562 0-211.580595 14.47261313-288.40062563 39.69952968-75.95618156 24.87636938-119.51173687 58.84194094-119.51173781 93.14554032 0 40.68857625 60.431925 80.12519531 161.64006281 105.50234718a27.54303563 27.54303563 0 1 1-13.39593094 53.43349032c-61.63380281-15.46165875-110.17214438-35.78090813-144.37558687-60.40688625C59.23630719 155.39280094000003 49.007825 117.53364655999997 49.007825 91.98122062000004c0-42.82942125 27.30516469-102.83568094 157.42096969-145.53990562 82.17840375-26.96713594 193.55242594-42.441315 305.577465-42.441315 111.78716719 0 223.07355281 15.47417813 305.32707375 42.441315 130.31611875 42.72926437 157.65884156 102.66040688 157.65884156 145.53990563 0 25.85289469-10.27856063 63.96244125-59.24256656 99.20500781zM477.17683906 46.84820062999995l0.90140813-1.07668219a45.07042219 45.07042219 0 0 1 33.80281687-15.49921782A42.04068844 42.04068844 0 0 1 546.03442906 47.13615000000004c18.55399031 22.39749562 82.75430344 101.33333344 145.13928 194.44131469C781.40219094 376.28794969 827.18622875 479.64945187 827.18622875 548.74491375 827.18622875 722.52895125 685.56494563 864 511.46791906 864S195.74960844 722.52895125 195.74960844 548.74491375c0-69.09546187 45.80907656-172.53208125 136.20031312-307.30516406C394.54773125 147.88106437 458.93583687 68.85758999999996 477.17683906 46.84820062999995zM511.46791906 808.91392781c143.72457 0 260.6322375-116.70735563 260.6322375-260.16901406 0-109.40845031-160.06259812-333.92175281-260.6322375-456.88888875-100.56964031 122.95461656-260.6322375 347.44287937-260.63223844 456.88888875C250.83568063 692.20657312 367.75586844 808.91392781 511.46791906 808.91392781zM670.59154906 561.50234719c0 87.19874813-71.13615 158.14710469-158.58528937 158.14710469S353.40845094 648.6635371899999 353.40845094 561.50234719a158.37245719 158.37245719 0 0 1 158.59780875-158.13458532c87.44913938 0 158.58528938 70.93583719 158.58528937 158.13458532z m-231.79968656-72.85132969a101.23317656 101.23317656 0 0 0-30.29733938 72.85132969c0 56.82629062 46.43505469 103.0610325 103.51173657 103.06103343s103.49921719-46.23474188 103.49921719-103.06103343-46.42253531-103.04851312-103.49921719-103.04851313a102.49765219 102.49765219 0 0 0-73.03912313 30.04694813z"  horiz-adv-x="1024" />

    
    <glyph glyph-name="quanxianguanli-dao" unicode="&#58996;" d="M882.00533333 756.96355555c-13.99466667 18.65955555-33.22311111 31.97155555-55.52355555 38.57066667l-262.82666667 77.14133333c-33.792 9.89866667-69.51822222 9.89866667-103.424 0l-262.82666666-77.14133333c-22.41422222-6.59911111-41.64266667-19.91111111-55.52355556-38.57066667S120.60444445 716.1173333300001 120.60444445 692.79288889v-424.16355556c0-22.98311111 7.168-44.94222222 20.82133333-63.488 29.01333333-39.36711111 87.60888889-115.59822222 154.05511111-183.40977778 88.40533333-90.112 159.17511111-133.91644445 216.51911111-133.91644444s128.11377778 43.80444445 216.51911111 133.91644444c66.56 67.81155555 125.04177778 143.92888889 154.05511111 183.40977778 13.65333333 18.54577778 20.82133333 40.50488889 20.82133333 63.488V692.79288889c0 23.32444445-7.39555555 45.51111111-21.39022222 64.17066666zM848.78222222 268.62933333c0-11.264-3.52711111-22.07288889-10.24-31.06133333-28.10311111-38.22933333-84.87822222-112.07111111-149.04888889-177.49333333C589.14133333-42.21155554999996 535.21066667-57.457777780000015 512-57.457777780000015s-77.14133333 15.24622222-177.49333333 117.53244445c-64.17066667 65.42222222-120.94577778 139.264-149.04888889 177.49333333-6.71288889 9.10222222-10.24 19.79733333-10.24 31.17511111V692.79288889c0 23.09688889 15.47377778 43.80444445 37.66044444 50.40355556l262.82666667 77.14133333c23.77955555 6.94044445 48.81066667 6.94044445 72.59022222 0l262.82666667-77.14133333c22.18666667-6.48533333 37.66044445-27.19288889 37.66044444-50.40355556v-424.16355556zM655.36 536.4622222200001c0 79.64444445-64.85333333 144.49777778-144.49777778 144.49777778s-144.49777778-64.85333333-144.49777777-144.49777778c0-71.11111111 51.65511111-130.38933333 119.46666666-142.336V102.96888889000002c0-5.00622222 4.096-9.10222222 9.10222222-9.10222222h36.40888889c5.00622222 0 9.10222222 4.096 9.10222223 9.10222222V230.39999999999998c0 5.00622222 4.096 9.10222222 9.10222222 9.10222222h61.44c5.00622222 0 9.10222222 4.096 9.10222222 9.10222223v36.40888888c0 5.00622222-4.096 9.10222222-9.10222222 9.10222222h-61.44c-5.00622222 0-9.10222222 4.096-9.10222222 9.10222223v91.81866667c65.536 13.65333333 114.91555555 71.90755555 114.91555555 141.42577777z m-144.49777778-89.88444444c-49.60711111 0-89.88444445 40.27733333-89.88444444 89.88444444s40.27733333 89.88444445 89.88444444 89.88444445 89.88444445-40.27733333 89.88444445-89.88444445-40.27733333-89.88444445-89.88444445-89.88444444z"  horiz-adv-x="1024" />

    
    <glyph glyph-name="caiwu" unicode="&#58892;" d="M389.54666667 621.22666667h231.46666666c71.68 0 126.61333333 154.24 126.61333334 154.24 0 46.29333333-4.48 80.96-84.37333334 83.73333333-79.36 2.77333333-98.88-55.04-156.05333333-55.04-58.88 0-87.78666667 45.12-160 55.04s-84.37333333-37.44-84.37333333-83.73333333c0 0 54.93333333-154.24 126.61333333-154.24h0.10666667z m244.37333333-47.89333334h-244.26666667c-270.4 0-337.06666667-527.04-337.06666666-527.04 0-69.44 56.64-138.77333333 126.61333333-138.77333333h665.70666667c69.97333333 0 126.61333333 69.44 126.61333333 138.77333333-0.64 0-67.2 527.04-337.6 527.04z m27.73333333-405.33333333c16.10666667 0.42666667 29.54666667-12.37333333 29.86666667-28.48 0.42666667-16.10666667-12.37333333-29.54666667-28.48-29.86666667H541.76v-77.12c-0.42666667-16.21333333-13.86666667-29.12-30.18666667-28.69333333-15.68 0.42666667-28.37333333 13.01333333-28.69333333 28.69333333v77.12h-120.53333333c-16.10666667-0.42666667-29.54666667 12.37333333-29.86666667 28.48-0.42666667 16.10666667 12.37333333 29.54666667 28.48 29.86666667h121.81333333v36.90666667H362.34666667c-16.10666667-0.42666667-29.54666667 12.37333333-29.86666667 28.48-0.42666667 16.10666667 12.37333333 29.54666667 28.48 29.86666666h82.98666667l-83.84 147.62666667c-8.10666667 13.97333333-3.41333333 32 10.56 40.21333333 14.08 8.10666667 32.10666667 3.41333333 40.53333333-10.45333333l100.48-176.21333333h5.01333333l100.48 176.21333333c8.42666667 13.97333333 26.45333333 18.66666667 40.53333334 10.45333333 13.97333333-8.10666667 18.77333333-26.13333333 10.56-40.10666666v-0.10666667l-83.30666667-147.09333333h76.58666667c16.10666667 0.42666667 29.54666667-12.37333333 29.86666666-28.48 0.42666667-16.10666667-12.37333333-29.54666667-28.48-29.86666667H541.65333333V168.53333333h119.89333334l0.10666666-0.53333333z"  horiz-adv-x="1024" />

    
    <glyph glyph-name="sanjiao-xia-copy" unicode="&#59086;" d="M122.86934099 872.44314667L851.98782 874.66666667 1584.920784 868.19417867C1629.474237 868.19417867 1668.639278 865.78323567 1681.652405 855.81999467 1713.071326 831.76594268 1709.638076 782.63553067 1681.652405 754.7733836699999L905.874092-94.68989733000001C891.086834-109.54105032999996 871.349905-115.89000733 851.928185-114.93585432999998 832.50220501-115.89213732999997 812.82704-109.54105032999996 797.975887-94.68989733000001L22.19970601 754.77125167C-5.722077 782.63340167-8.76983199 831.31442167 22.19970601 855.75184067 36.607856 867.11436667 61.684215 872.44314667 122.86934099 872.44314667L122.86934099 872.44314667Z"  horiz-adv-x="1707" />

    
    <glyph glyph-name="sanjiao-you-copy" unicode="&#59087;" d="M386.22351994-346.4639922900001L383.99999994 382.65448672 390.47248794 1115.58745072C390.47248795 1160.14090372 392.88343095 1199.30594472 402.84667194 1212.31907172 426.90072393 1243.73799272 476.03113594 1240.30474272 503.89328294 1212.31907172L1353.35656394 436.54075872C1368.20771694 421.75350072 1374.55667394 402.01657171 1373.60252093 382.59485171999995 1374.55880394 363.16887173 1368.20771694 343.49370672 1353.35656394 328.64255372L503.89541494-447.13362727000003C476.03326494-475.05541027999993 427.35224494-478.1031652700001 402.91482594-447.13362727000003 391.55229993-432.72547727999995 386.22351994-407.6491182699999 386.22351994-346.4639922900001L386.22351994-346.4639922900001Z"  horiz-adv-x="1707" />

    
    <glyph glyph-name="sanjiao-zuo-copy" unicode="&#59088;" d="M1341.77647995 1114.4639923L1343.99999995 385.34551328 1337.52751195-347.5874507200001C1337.52751194-392.1409037200001 1335.11656894-431.30594472000007 1325.15332795-444.31907172 1301.09927596-475.73799271999997 1251.96886395-472.3047427199999 1224.10671696-444.31907172L374.64343595 331.45924128C359.79228295 346.24649927999997 353.44332595 365.98342829 354.39747896 385.40514828 353.44119595 404.83112827 359.79228295 424.50629328 374.64343595 439.35744628L1224.10458495 1215.13362727C1251.96673495 1243.05541028 1300.64775495 1246.1031652699999 1325.08517395 1215.13362727 1336.44769996 1200.72547728 1341.77647995 1175.64911826 1341.77647995 1114.4639923L1341.77647995 1114.4639923Z"  horiz-adv-x="1707" />

    
    <glyph glyph-name="you-xian" unicode="&#59089;" d="M249.9421875-87.32700093000005a69.75639613 69.75639613 0 0 0 0 94.26540018l377.06160073 377.06160075-377.06160073 377.06160075a69.75639613 69.75639613 0 0 0 94.26540017 94.26540017L774.05781251 433.9606621A74.46966615 74.46966615 0 0 0 794.79620057 384a69.75639613 69.75639613 0 0 0-20.73838807-49.01800811L348.92085767-87.32700093000005a69.75639613 69.75639613 0 0 0-98.97867017 0z"  horiz-adv-x="1024" />

    
    <glyph glyph-name="xia-xian" unicode="&#59090;" d="M40.67299907 646.0578125a69.75639613 69.75639613 0 0 0 94.26540018 0l377.06160075-377.06160073 377.06160075 377.06160073a69.75639613 69.75639613 0 0 0 94.26540017-94.26540017L561.9606621 121.94218749000004A74.46966615 74.46966615 0 0 0 512 101.20379943a69.75639613 69.75639613 0 0 0-49.01800811 20.73838807L40.67299907 547.07914233a69.75639613 69.75639613 0 0 0 0 98.97867017z"  horiz-adv-x="1024" />

    
    <glyph glyph-name="shang-xian" unicode="&#59091;" d="M983.32700093 121.94218750000005a69.75639613 69.75639613 0 0 0-94.26540018 0l-377.06160075 377.06160073-377.06160075-377.06160073a69.75639613 69.75639613 0 0 0-94.26540017 94.26540017L462.0393379 646.05781251A74.46966615 74.46966615 0 0 0 512 666.79620057a69.75639613 69.75639613 0 0 0 49.01800811-20.73838807L983.32700093 220.92085767000003a69.75639613 69.75639613 0 0 0 0-98.97867017z"  horiz-adv-x="1024" />

    
    <glyph glyph-name="pingtai_mokuai" unicode="&#58974;" d="M752.6 768.1c38.4 0 74.5-14.9 101.6-42.1 27.1-27.1 42.1-63.2 42.1-101.6 0-38.4-14.9-74.5-42.1-101.6-27.1-27.1-63.2-42.1-101.6-42.1h-0.6c-38.4 0-74.5 14.9-101.6 42.1-27.1 27.1-42.1 63.2-42.1 101.6 0 38.4 14.9 74.5 42.1 101.6 27.1 27.1 63.2 42.1 101.6 42.1h0.6m0 64h-0.6c-114.7 0-207.7-93-207.7-207.7 0-114.7 93-207.7 207.7-207.7h0.6c114.7 0 207.7 93 207.7 207.7 0 114.7-93 207.7-207.7 207.7z m-321.4-0.1h-319c-26.5 0-48-21.5-48-48v-319c0-26.5 21.5-48 48-48h319c26.5 0 48 21.5 48 48V784c0 26.5-21.4 48-48 48z m-16.4-326.5c0-13.3-10.7-24-24-24H152.7c-13.3 0-24 10.7-24 24V743.6c0 13.3 10.7 24 24 24h238.1c13.3 0 24-10.7 24-24v-238.1z m16.4-154.1h-319c-26.5 0-48-21.5-48-48v-319c0-26.5 21.5-48 48-48h319c26.5 0 48 21.5 48 48v319c0 26.6-21.5 48-48 48z m-16.4-326.5c0-13.3-10.7-24-24-24H152.7c-13.3 0-24 10.7-24 24V263c0 13.3 10.7 24 24 24h238.1c13.3 0 24-10.7 24-24v-238.1z m497.4 327h-319c-26.5 0-48-21.5-48-48v-319c0-26.5 21.5-48 48-48h319c26.5 0 48 21.5 48 48v319c0 26.5-21.5 48-48 48z m-16.5-326.6c0-13.3-10.7-24-24-24H633.6c-13.3 0-24 10.7-24 24V263.4c0 13.3 10.7 24 24 24h238.1c13.3 0 24-10.7 24-24v-238.1z"  horiz-adv-x="1024" />

    
    <glyph glyph-name="jixiaopinggu" unicode="&#58951;" d="M717.71428531 452.57142844m68.57142938 0l68.57142844 0q68.57142844 0 68.57142843-68.57142844l0-411.42857156q0-68.57142844-68.57142843-68.57142844l-68.57142844 0q-68.57142844 0-68.57142938 68.57142844l0 411.42857156q0 68.57142844 68.57142938 68.57142844ZM409.14285687 349.71428531000004m68.57142844 0l68.57142938 0q68.57142844 0 68.57142844-68.57142844l-1e-8-308.57142843q0-68.57142844-68.57142843-68.57142844l-68.57142938 0q-68.57142844 0-68.57142844 68.57142844l0 308.57142844q0 68.57142844 68.57142844 68.57142843ZM100.57142844 212.57142843999998m68.57142844 0l68.57142843 0q68.57142844 0 68.57142938-68.57142844l0-171.42857156q0-68.57142844-68.57142938-68.57142844l-68.57142843 0q-68.57142844 0-68.57142844 68.57142844l0 171.42857156q0 68.57142844 68.57142844 68.57142844ZM896.51428531 583.88571469a51.42857156 51.42857156 0 0 0-51.42857062 51.42857062V761.14285688h-125.82857156a51.42857156 51.42857156 0 0 0 0 102.85714312h177.25714218a51.42857156 51.42857156 0 0 0 51.42857157-51.42857156v-177.25714313a51.42857156 51.42857156 0 0 0-51.42857157-51.42857062zM129.2 429.42857156a51.42857156 51.42857156 0 0 0-35.48571469 88.45714313L204.8 624a205.71428531 205.71428531 0 0 0 278.91428531 9.25714312 104.74285688 104.74285688 0 0 1 137.14285781 1.2L812 795.42857156a51.42857156 51.42857156 0 1 0 66.17142844-78.68571469l-190.62857156-159.77142843a208.28571469 208.28571469 0 0 0-270.51428532-1.54285688 104.05714312 104.05714312 0 0 1-140.74285687-4.97142844l-111.42857156-106.8a51.42857156 51.42857156 0 0 0-35.65714313-14.22857156z"  horiz-adv-x="1024" />

    
    <glyph glyph-name="xiazai" unicode="&#58883;" d="M1343.36758906 494.03952563c-16.31620594 95.62055344-99.03557344 168.47430844-199.20948656 168.47430843-32.63241094 0-63.36758906-7.96837969-90.68774719-21.62845875C990.48221375 772.55335969 856.53754906 864 700.58498 864c-216.28458469 0-391.96837969-175.3043475-391.96837875-391.96837969 0-4.17391313 0.37944656-7.96837969 0.75889313-12.14229187-153.29644312 0-277.37549437-124.45849781-277.37549438-277.75494094 0-152.91699562 123.69960469-276.99604781 276.61660125-278.1343875h936.85375406c167.33596875 0 303.17786531 135.8418975 303.17786625 303.17786531 0 133.18577063-86.1343875 246.26086969-205.2806325 286.86166031z m-360.853755-231.08300344l-177.96047437-207.93675938c-7.96837969-9.48616594-21.62845875-9.48616594-30.35573157 0l-177.96047437 207.93675938c-13.66007906 15.93675844-7.96837969 44.77470375 11.00395312 44.77470281l73.61264813-2.65612594c12.14229281 0 22.38735188 7.58893312 22.38735187 21.24901125V512.63241094c0.75889313 12.90118594 4.93280625 18.59288531 16.69565157 18.59288531h135.8418975c12.14229281 0 23.90513813-4.55335969 23.90513812-18.59288531v-186.30830063c0-14.03952562 4.17391313-18.59288531 15.93675938-18.59288531h79.68379406c19.35177844 0 20.86956562-28.83794437 7.20948656-44.77470281z"  horiz-adv-x="1619" />

    


  </font>
</defs>
</svg>
